<?xml version="1.0" encoding="UTF-8" standalone="no"?>
<!-- Created with Inkscape (http://www.inkscape.org/) -->

<svg
   xmlns:dc="http://purl.org/dc/elements/1.1/"
   xmlns:cc="http://creativecommons.org/ns#"
   xmlns:rdf="http://www.w3.org/1999/02/22-rdf-syntax-ns#"
   xmlns:svg="http://www.w3.org/2000/svg"
   xmlns="http://www.w3.org/2000/svg"
   xmlns:sodipodi="http://sodipodi.sourceforge.net/DTD/sodipodi-0.dtd"
   xmlns:inkscape="http://www.inkscape.org/namespaces/inkscape"
   width="744.09448"
   height="1052.3622"
   id="svg2"
   version="1.1"
   inkscape:version="0.48.2 r9819"
   sodipodi:docname="background.pdf">
  <defs
     id="defs4">
    <inkscape:perspective
       sodipodi:type="inkscape:persp3d"
       inkscape:vp_x="0 : 526.18109 : 1"
       inkscape:vp_y="0 : 1000 : 0"
       inkscape:vp_z="744.09448 : 526.18109 : 1"
       inkscape:persp3d-origin="372.04724 : 350.78739 : 1"
       id="perspective10" />
    <inkscape:perspective
       id="perspective3731"
       inkscape:persp3d-origin="0.5 : 0.33333333 : 1"
       inkscape:vp_z="1 : 0.5 : 1"
       inkscape:vp_y="0 : 1000 : 0"
       inkscape:vp_x="0 : 0.5 : 1"
       sodipodi:type="inkscape:persp3d" />
    <clipPath
       id="clipPath4402"
       clipPathUnits="userSpaceOnUse">
      <path
         id="path4404"
         d="M 0.030029,0.03 1190,0.03 1190,841 0.030029,841 l 0,-840.97 z"
         inkscape:connector-curvature="0" />
    </clipPath>
    <clipPath
       id="clipPath4392"
       clipPathUnits="userSpaceOnUse">
      <path
         id="path4394"
         d="m 73.219,658.282 388.577,0 0,80.529 -388.577,0 0,-80.529 z"
         inkscape:connector-curvature="0" />
    </clipPath>
    <clipPath
       id="clipPath4386"
       clipPathUnits="userSpaceOnUse">
      <path
         id="path4388"
         d="m 38.379,739.199 -3.265,-62.214 435.099,-22.838 3.264,62.214"
         inkscape:connector-curvature="0" />
    </clipPath>
    <clipPath
       id="clipPath4362"
       clipPathUnits="userSpaceOnUse">
      <path
         id="path4364"
         d="M 0.030029,0.03 1190,0.03 1190,841 0.030029,841 l 0,-840.97 z"
         inkscape:connector-curvature="0" />
    </clipPath>
    <clipPath
       id="clipPath4346"
       clipPathUnits="userSpaceOnUse">
      <path
         id="path4348"
         d="m 949.777,284.304 131.437,0 0,32.11 -131.437,0 0,-32.11 z"
         inkscape:connector-curvature="0" />
    </clipPath>
    <clipPath
       id="clipPath4200"
       clipPathUnits="userSpaceOnUse">
      <path
         id="path4202"
         d="M 0.030029,0.03 1190,0.03 1190,841 0.030029,841 l 0,-840.97 z"
         inkscape:connector-curvature="0" />
    </clipPath>
    <clipPath
       id="clipPath4184"
       clipPathUnits="userSpaceOnUse">
      <path
         id="path4186"
         d="M 0.030029,0.03 1190,0.03 1190,841 0.030029,841 l 0,-840.97 z"
         inkscape:connector-curvature="0" />
    </clipPath>
    <clipPath
       id="clipPath4168"
       clipPathUnits="userSpaceOnUse">
      <path
         id="path4170"
         d="m 0,0 1190,0 0,841 L 0,841 0,0 z"
         inkscape:connector-curvature="0" />
    </clipPath>
    <clipPath
       id="clipPath4158"
       clipPathUnits="userSpaceOnUse">
      <path
         id="path4160"
         d="m 339.53,374.915 66.133,0 0,92.32 -66.133,0 0,-92.32 z"
         inkscape:connector-curvature="0" />
    </clipPath>
    <clipPath
       id="clipPath4148"
       clipPathUnits="userSpaceOnUse">
      <path
         id="path4150"
         d="m 339.53,381.415 66.133,0 0,10.653 -66.133,0 0,-10.653 z"
         inkscape:connector-curvature="0" />
    </clipPath>
    <clipPath
       id="clipPath4136"
       clipPathUnits="userSpaceOnUse">
      <path
         id="path4138"
         d="m 339.53,374.915 66.133,0 0,92.32 -66.133,0 0,-92.32 z"
         inkscape:connector-curvature="0" />
    </clipPath>
    <clipPath
       id="clipPath4126"
       clipPathUnits="userSpaceOnUse">
      <path
         id="path4128"
         d="M 0.030029,0.03 1190,0.03 1190,841 0.030029,841 l 0,-840.97 z"
         inkscape:connector-curvature="0" />
    </clipPath>
    <clipPath
       id="clipPath4102"
       clipPathUnits="userSpaceOnUse">
      <path
         id="path4104"
         d="m 0,0 1190,0 0,841 L 0,841 0,0 z"
         inkscape:connector-curvature="0" />
    </clipPath>
    <clipPath
       id="clipPath4090"
       clipPathUnits="userSpaceOnUse">
      <path
         id="path4092"
         d="m 254.49,419.741 67.481,0 0,36.879 -67.481,0 0,-36.879 z"
         inkscape:connector-curvature="0" />
    </clipPath>
    <clipPath
       id="clipPath4084"
       clipPathUnits="userSpaceOnUse">
      <path
         id="path4086"
         d="m 226.302,562.58 28.577,-203.307 197.446,27.738 -28.577,203.307"
         inkscape:connector-curvature="0" />
    </clipPath>
    <clipPath
       id="clipPath4072"
       clipPathUnits="userSpaceOnUse">
      <path
         id="path4074"
         d="m 254.49,374.642 67.481,0 0,93.196 -67.481,0 0,-93.196 z"
         inkscape:connector-curvature="0" />
    </clipPath>
    <clipPath
       id="clipPath4066"
       clipPathUnits="userSpaceOnUse">
      <path
         id="path4068"
         clip-rule="evenodd"
         d="m 323.796,373.41 -71.067,0 0,52.595 c 0,-0.019 5.766,10.271 37.418,9.735 20.361,-0.346 30.432,10.519 33.649,17.677"
         inkscape:connector-curvature="0" />
    </clipPath>
    <clipPath
       id="clipPath4054"
       clipPathUnits="userSpaceOnUse">
      <path
         id="path4056"
         d="m 254.49,374.642 67.481,0 0,93.196 -67.481,0 0,-93.196 z"
         inkscape:connector-curvature="0" />
    </clipPath>
    <clipPath
       id="clipPath4044"
       clipPathUnits="userSpaceOnUse">
      <path
         id="path4046"
         d="M 0.030029,0.03 1190,0.03 1190,841 0.030029,841 l 0,-840.97 z"
         inkscape:connector-curvature="0" />
    </clipPath>
    <clipPath
       id="clipPath4034"
       clipPathUnits="userSpaceOnUse">
      <path
         id="path4036"
         d="m 162.451,407.965 72.578,0 0,10.5 -72.578,0 0,-10.5 z"
         inkscape:connector-curvature="0" />
    </clipPath>
    <clipPath
       id="clipPath4028"
       clipPathUnits="userSpaceOnUse">
      <path
         id="path4030"
         d="m 150.038,424.751 -5.896,-56.113 144.978,-15.234 5.896,56.113"
         inkscape:connector-curvature="0" />
    </clipPath>
    <clipPath
       id="clipPath4012"
       clipPathUnits="userSpaceOnUse">
      <path
         id="path4014"
         d="m 0,0 1190,0 0,841 L 0,841 0,0 z"
         inkscape:connector-curvature="0" />
    </clipPath>
    <clipPath
       id="clipPath4000"
       clipPathUnits="userSpaceOnUse">
      <path
         id="path4002"
         d="m 216.884,412.676 18.145,0 0,18.358 -18.145,0 0,-18.358 z"
         inkscape:connector-curvature="0" />
    </clipPath>
    <clipPath
       id="clipPath3988"
       clipPathUnits="userSpaceOnUse">
      <path
         id="path3990"
         d="m 198.526,412.676 18.358,0 0,18.358 -18.358,0 0,-18.358 z"
         inkscape:connector-curvature="0" />
    </clipPath>
    <clipPath
       id="clipPath3976"
       clipPathUnits="userSpaceOnUse">
      <path
         id="path3978"
         d="m 180.167,412.676 18.358,0 0,18.358 -18.358,0 0,-18.358 z"
         inkscape:connector-curvature="0" />
    </clipPath>
    <clipPath
       id="clipPath3964"
       clipPathUnits="userSpaceOnUse">
      <path
         id="path3966"
         d="m 162.451,374.295 72.578,0 0,93.543 -72.578,0 0,-93.543 z"
         inkscape:connector-curvature="0" />
    </clipPath>
    <clipPath
       id="clipPath3958"
       clipPathUnits="userSpaceOnUse">
      <path
         id="path3960"
         d="m 161.809,412.676 18.358,0 0,18.358 -18.358,0"
         inkscape:connector-curvature="0" />
    </clipPath>
    <clipPath
       id="clipPath3946"
       clipPathUnits="userSpaceOnUse">
      <path
         id="path3948"
         d="m 0,0 1190,0 0,841 L 0,841 0,0 z"
         inkscape:connector-curvature="0" />
    </clipPath>
    <clipPath
       id="clipPath3936"
       clipPathUnits="userSpaceOnUse">
      <path
         id="path3938"
         d="m 162.451,374.295 72.578,0 0,93.543 -72.578,0 0,-93.543 z"
         inkscape:connector-curvature="0" />
    </clipPath>
    <clipPath
       id="clipPath3926"
       clipPathUnits="userSpaceOnUse">
      <path
         id="path3928"
         d="M 0.030029,0.03 1190,0.03 1190,841 0.030029,841 l 0,-840.97 z"
         inkscape:connector-curvature="0" />
    </clipPath>
    <clipPath
       id="clipPath3916"
       clipPathUnits="userSpaceOnUse">
      <path
         id="path3918"
         d="m 70.866,389.552 71.232,0 0,16.71 -71.232,0 0,-16.71 z"
         inkscape:connector-curvature="0" />
    </clipPath>
    <clipPath
       id="clipPath3896"
       clipPathUnits="userSpaceOnUse">
      <path
         id="path3898"
         d="m 0,0 1190,0 0,841 L 0,841 0,0 z"
         inkscape:connector-curvature="0" />
    </clipPath>
    <clipPath
       id="clipPath3884"
       clipPathUnits="userSpaceOnUse">
      <path
         id="path3886"
         d="m 118.412,408.08 23.686,0 0,23.794 -23.686,0 0,-23.794 z"
         inkscape:connector-curvature="0" />
    </clipPath>
    <clipPath
       id="clipPath3874"
       clipPathUnits="userSpaceOnUse">
      <path
         id="path3876"
         d="m 70.866,374.295 71.232,0 0,93.543 -71.232,0 0,-93.543 z"
         inkscape:connector-curvature="0" />
    </clipPath>
    <clipPath
       id="clipPath3862"
       clipPathUnits="userSpaceOnUse">
      <path
         id="path3864"
         d="m 94.628,408.081 23.784,0 0,23.794 -23.784,0 0,-23.794 z"
         inkscape:connector-curvature="0" />
    </clipPath>
    <clipPath
       id="clipPath3850"
       clipPathUnits="userSpaceOnUse">
      <path
         id="path3852"
         d="m 70.844,408.081 23.784,0 0,23.794 -23.784,0 0,-23.794 z"
         inkscape:connector-curvature="0" />
    </clipPath>
    <clipPath
       id="clipPath3840"
       clipPathUnits="userSpaceOnUse">
      <path
         id="path3842"
         d="m 70.866,374.295 71.232,0 0,93.543 -71.232,0 0,-93.543 z"
         inkscape:connector-curvature="0" />
    </clipPath>
    <clipPath
       id="clipPath3828"
       clipPathUnits="userSpaceOnUse">
      <path
         id="path3830"
         d="m 70.84415,408.08 0.02185,0 0,23.794 -0.02185,0 0,-23.794 z"
         inkscape:connector-curvature="0" />
    </clipPath>
    <clipPath
       id="clipPath3818"
       clipPathUnits="userSpaceOnUse">
      <path
         id="path3820"
         d="m 70.866,374.295 71.232,0 0,93.543 -71.232,0 0,-93.543 z"
         inkscape:connector-curvature="0" />
    </clipPath>
    <clipPath
       id="clipPath3334"
       clipPathUnits="userSpaceOnUse">
      <path
         id="path3336"
         d="M 0.030029,0.03 1190,0.03 1190,841 0.030029,841 l 0,-840.97 z"
         inkscape:connector-curvature="0" />
    </clipPath>
    <clipPath
       id="clipPath3322"
       clipPathUnits="userSpaceOnUse">
      <path
         id="path3324"
         d="m 994.065,96.716 124.484,0 0,13.769 -124.484,0 0,-13.769 z"
         inkscape:connector-curvature="0" />
    </clipPath>
    <clipPath
       id="clipPath3310"
       clipPathUnits="userSpaceOnUse">
      <path
         id="path3312"
         d="m 1008.919,111.804 93.047,0 0,10.627 -93.047,0 0,-10.627 z"
         inkscape:connector-curvature="0" />
    </clipPath>
    <clipPath
       id="clipPath3294"
       clipPathUnits="userSpaceOnUse">
      <path
         id="path3296"
         d="m 1005.903,125.717 95.276,0 0,38.122 -95.276,0 0,-38.122 z"
         inkscape:connector-curvature="0" />
    </clipPath>
    <clipPath
       id="clipPath3282"
       clipPathUnits="userSpaceOnUse">
      <path
         id="path3284"
         d="m 845.025,99.696 93.047,0 0,10.627 -93.047,0 0,-10.627 z"
         inkscape:connector-curvature="0" />
    </clipPath>
    <clipPath
       id="clipPath3266"
       clipPathUnits="userSpaceOnUse">
      <path
         id="path3268"
         d="m 831.55,111.184 120.891,0 0,48.378 -120.891,0 0,-48.378 z"
         inkscape:connector-curvature="0" />
    </clipPath>
    <clipPath
       id="clipPath3254"
       clipPathUnits="userSpaceOnUse">
      <path
         id="path3256"
         d="m 700.362,122.375 93.047,0 0,10.293 -93.047,0 0,-10.293 z"
         inkscape:connector-curvature="0" />
    </clipPath>
    <clipPath
       id="clipPath3242"
       clipPathUnits="userSpaceOnUse">
      <path
         id="path3244"
         d="m 701.011,133.338 93.047,0 0,10.627 -93.047,0 0,-10.627 z"
         inkscape:connector-curvature="0" />
    </clipPath>
    <clipPath
       id="clipPath3226"
       clipPathUnits="userSpaceOnUse">
      <path
         id="path3228"
         d="m 658.931,113.677 68.447,0 0,37.231 -68.447,0 0,-37.231 z"
         inkscape:connector-curvature="0" />
    </clipPath>
    <clipPath
       id="clipPath3214"
       clipPathUnits="userSpaceOnUse">
      <path
         id="path3216"
         d="M 0.030029,0.03 1190,0.03 1190,841 0.030029,841 l 0,-840.97 z"
         inkscape:connector-curvature="0" />
    </clipPath>
    <clipPath
       id="clipPath3198"
       clipPathUnits="userSpaceOnUse">
      <path
         id="path3200"
         d="m 694.648,273.516 129.607,0 0,51.859 -129.607,0 0,-51.859 z"
         inkscape:connector-curvature="0" />
    </clipPath>
    <clipPath
       id="clipPath3164"
       clipPathUnits="userSpaceOnUse">
      <path
         id="path3166"
         d="M 0.030029,0.03 1190,0.03 1190,841 0.030029,841 l 0,-840.97 z"
         inkscape:connector-curvature="0" />
    </clipPath>
    <clipPath
       id="clipPath3146"
       clipPathUnits="userSpaceOnUse">
      <path
         id="path3148"
         d="m 0,0 1190,0 0,841 L 0,841 0,0 z"
         inkscape:connector-curvature="0" />
    </clipPath>
    <clipPath
       id="clipPath3134"
       clipPathUnits="userSpaceOnUse">
      <path
         id="path3136"
         d="m 902.785,435.404 67.265,0 0,42.038 -67.265,0 0,-42.038 z"
         inkscape:connector-curvature="0" />
    </clipPath>
    <clipPath
       id="clipPath3124"
       clipPathUnits="userSpaceOnUse">
      <path
         id="path3126"
         d="m 0,0 1190,0 0,841 L 0,841 0,0 z"
         inkscape:connector-curvature="0" />
    </clipPath>
    <clipPath
       id="clipPath3112"
       clipPathUnits="userSpaceOnUse">
      <path
         id="path3114"
         d="m 977.55,648.468 11.166,0 0,8.219 -11.166,0 0,-8.219 z"
         inkscape:connector-curvature="0" />
    </clipPath>
    <clipPath
       id="clipPath3100"
       clipPathUnits="userSpaceOnUse">
      <path
         id="path3102"
         d="m 967.329,648.4689 11.166,0 0,8.2191 -11.166,0 0,-8.2191 z"
         inkscape:connector-curvature="0" />
    </clipPath>
    <clipPath
       id="clipPath3088"
       clipPathUnits="userSpaceOnUse">
      <path
         id="path3090"
         d="m 814.635,644.4109 11.166,0 0,8.2191 -11.166,0 0,-8.2191 z"
         inkscape:connector-curvature="0" />
    </clipPath>
    <clipPath
       id="clipPath3076"
       clipPathUnits="userSpaceOnUse">
      <path
         id="path3078"
         d="m 824.856,644.41 11.165,0 0,8.219 -11.165,0 0,-8.219 z"
         inkscape:connector-curvature="0" />
    </clipPath>
    <clipPath
       id="clipPath3064"
       clipPathUnits="userSpaceOnUse">
      <path
         id="path3066"
         d="m 946.954,570.35 8.2201,0 0,11.166 -8.2201,0 0,-11.166 z"
         inkscape:connector-curvature="0" />
    </clipPath>
    <clipPath
       id="clipPath3052"
       clipPathUnits="userSpaceOnUse">
      <path
         id="path3054"
         d="m 946.953,560.129 8.22,0 0,11.166 -8.22,0 0,-11.166 z"
         inkscape:connector-curvature="0" />
    </clipPath>
    <clipPath
       id="clipPath3040"
       clipPathUnits="userSpaceOnUse">
      <path
         id="path3042"
         d="m 840.985,672.929 8.22,0 0,11.166 -8.22,0 0,-11.166 z"
         inkscape:connector-curvature="0" />
    </clipPath>
    <clipPath
       id="clipPath3028"
       clipPathUnits="userSpaceOnUse">
      <path
         id="path3030"
         d="m 840.984,662.708 8.22,0 0,11.166 -8.22,0 0,-11.166 z"
         inkscape:connector-curvature="0" />
    </clipPath>
    <clipPath
       id="clipPath3010"
       clipPathUnits="userSpaceOnUse">
      <path
         id="path3012"
         d="m 0,0 1190,0 0,841 L 0,841 0,0 z"
         inkscape:connector-curvature="0" />
    </clipPath>
    <clipPath
       id="clipPath2998"
       clipPathUnits="userSpaceOnUse">
      <path
         id="path3000"
         d="m 836.135,580.348 131.437,0 0,82.143 -131.437,0 0,-82.143 z"
         inkscape:connector-curvature="0" />
    </clipPath>
    <clipPath
       id="clipPath2988"
       clipPathUnits="userSpaceOnUse">
      <path
         id="path2990"
         d="m 0,0 1190,0 0,841 L 0,841 0,0 z"
         inkscape:connector-curvature="0" />
    </clipPath>
    <clipPath
       id="clipPath2884"
       clipPathUnits="userSpaceOnUse">
      <path
         id="path2886"
         d="M 0.030029,0.03 1190,0.03 1190,841 0.030029,841 l 0,-840.97 z"
         inkscape:connector-curvature="0" />
    </clipPath>
    <inkscape:perspective
       id="perspective2874"
       inkscape:persp3d-origin="0.5 : 0.33333333 : 1"
       inkscape:vp_z="1 : 0.5 : 1"
       inkscape:vp_y="0 : 1000 : 0"
       inkscape:vp_x="0 : 0.5 : 1"
       sodipodi:type="inkscape:persp3d" />
    <inkscape:perspective
       id="perspective5944"
       inkscape:persp3d-origin="0.5 : 0.33333333 : 1"
       inkscape:vp_z="1 : 0.5 : 1"
       inkscape:vp_y="0 : 1000 : 0"
       inkscape:vp_x="0 : 0.5 : 1"
       sodipodi:type="inkscape:persp3d" />
    <inkscape:perspective
       id="perspective6038"
       inkscape:persp3d-origin="0.5 : 0.33333333 : 1"
       inkscape:vp_z="1 : 0.5 : 1"
       inkscape:vp_y="0 : 1000 : 0"
       inkscape:vp_x="0 : 0.5 : 1"
       sodipodi:type="inkscape:persp3d" />
  </defs>
  <sodipodi:namedview
     id="base"
     pagecolor="#ffffff"
     bordercolor="#666666"
     borderopacity="1.0"
     inkscape:pageopacity="0.0"
     inkscape:pageshadow="2"
     inkscape:zoom="1.4142136"
     inkscape:cx="299.03566"
     inkscape:cy="918.99547"
     inkscape:document-units="px"
     inkscape:current-layer="layer1"
     showgrid="false"
     units="mm"
     inkscape:window-width="1680"
     inkscape:window-height="1006"
     inkscape:window-x="33"
     inkscape:window-y="55"
     inkscape:window-maximized="0" />
  <metadata
     id="metadata7">
    <rdf:RDF>
      <cc:Work
         rdf:about="">
        <dc:format>image/svg+xml</dc:format>
        <dc:type
           rdf:resource="http://purl.org/dc/dcmitype/StillImage" />
        <dc:title></dc:title>
      </cc:Work>
    </rdf:RDF>
  </metadata>
  <g
     inkscape:label="Layer 1"
     inkscape:groupmode="layer"
     id="layer1"
     transform="translate(0,2.2302535e-5)">
    <rect
       style="fill:#0067b6;fill-opacity:1;stroke:none"
       id="rect5953"
       width="744.09448"
       height="1052.3622"
       x="0"
       y="-2.2302534e-05" />
    <path
       style="fill:#ffffff;fill-opacity:1;stroke:none"
       d="M 117.87179,957.46733 C 77.567732,957.78893 37.256413,962.11904 0,972.8486 l 0,123.5115 744.09449,0 0,-123.66532 C 570.18297,1026.8432 446.29183,1008.6842 329.62058,983.35913 273.65974,971.21206 195.76059,956.8458 117.87179,957.46733 z"
       id="path3737"
       inkscape:connector-curvature="0" />
    <path
       style="fill:none;stroke:#0067b6;stroke-width:1.64029503px;stroke-linecap:butt;stroke-linejoin:miter;stroke-opacity:1"
       d="M -1.9218315,987.04815 C 138.73817,948.40022 282.55393,989.64779 394.01977,1012.2359 c 105.93387,21.4672 198.03711,33.9029 351.03397,-8.9838"
       id="path5828"
       sodipodi:nodetypes="csc"
       inkscape:connector-curvature="0" />
    <path
       sodipodi:nodetypes="csc"
       id="path5830"
       d="M -2.5779495,1003.7792 C 138.08206,953.97723 280.20428,994.17694 394.67589,1018.141 c 100.50372,21.0398 197.38099,37.5116 351.03397,-2.0945"
       style="fill:none;stroke:#0067b6;stroke-width:1.64029503px;stroke-linecap:butt;stroke-linejoin:miter;stroke-opacity:1"
       inkscape:connector-curvature="0" />
    <path
       style="fill:none;stroke:#0067b6;stroke-width:1.64029503px;stroke-linecap:butt;stroke-linejoin:miter;stroke-opacity:1"
       d="M -2.5779495,1019.8541 C 94.564653,973.18885 222.51814,986.77643 306.83489,1005.2523 c 39.94931,8.7538 71.84415,13.0417 87.841,15.1851 80.36621,10.7683 178.02551,17.828 351.03397,-33.26013"
       id="path5832"
       sodipodi:nodetypes="cssz"
       inkscape:connector-curvature="0" />
  </g>
</svg>
