<?xml version="1.0" encoding="UTF-8" standalone="no"?>
<!-- Created with Inkscape (http://www.inkscape.org/) -->

<svg
   xmlns:dc="http://purl.org/dc/elements/1.1/"
   xmlns:cc="http://creativecommons.org/ns#"
   xmlns:rdf="http://www.w3.org/1999/02/22-rdf-syntax-ns#"
   xmlns:svg="http://www.w3.org/2000/svg"
   xmlns="http://www.w3.org/2000/svg"
   xmlns:sodipodi="http://sodipodi.sourceforge.net/DTD/sodipodi-0.dtd"
   xmlns:inkscape="http://www.inkscape.org/namespaces/inkscape"
   id="svg3004"
   version="1.1"
   inkscape:version="0.48.2 r9819"
   width="163.57214"
   height="101.86661"
   xml:space="preserve"
   sodipodi:docname="Swansea University Logo.svg"><metadata
     id="metadata3010"><rdf:RDF><cc:Work
         rdf:about=""><dc:format>image/svg+xml</dc:format><dc:type
           rdf:resource="http://purl.org/dc/dcmitype/StillImage" /><dc:title></dc:title></cc:Work></rdf:RDF></metadata><defs
     id="defs3008"><clipPath
       clipPathUnits="userSpaceOnUse"
       id="clipPath3018"><path
         d="m 0,841 1190.551,0 0,-841.89 L 0,-0.89 0,841 z"
         id="path3020"
         inkscape:connector-curvature="0" /></clipPath><clipPath
       clipPathUnits="userSpaceOnUse"
       id="clipPath3024"><path
         d="m 0.030029,841.95 1190.579971,0 0,-841.92 -1190.579971,0 0,841.92 z"
         id="path3026"
         inkscape:connector-curvature="0" /></clipPath><clipPath
       clipPathUnits="userSpaceOnUse"
       id="clipPath3152"><path
         d="m 857.757,550.611 -131.437,0 0,-82.143 131.437,0 0,82.143 z"
         id="path3154"
         inkscape:connector-curvature="0" /></clipPath><clipPath
       clipPathUnits="userSpaceOnUse"
       id="clipPath3172"><path
         d="m 1087.032,571.635 -172.264,0 0,-123.271 172.264,0 0,123.271 z"
         id="path3174"
         inkscape:connector-curvature="0" /></clipPath><clipPath
       clipPathUnits="userSpaceOnUse"
       id="clipPath3178"><path
         d="m 910.007,554.587 188.272,0 0,-89.506 -188.272,0 0,89.506 z"
         clip-rule="evenodd"
         id="path3180"
         inkscape:connector-curvature="0" /></clipPath><clipPath
       clipPathUnits="userSpaceOnUse"
       id="clipPath3184"><path
         d="m 0,841 1190.551,0 0,-841.89 L 0,-0.89 0,841 z"
         id="path3186"
         inkscape:connector-curvature="0" /></clipPath><clipPath
       clipPathUnits="userSpaceOnUse"
       id="clipPath3190"><path
         d="m 0.030029,841.95 1190.579971,0 0,-841.92 -1190.579971,0 0,841.92 z"
         id="path3192"
         inkscape:connector-curvature="0" /></clipPath><clipPath
       clipPathUnits="userSpaceOnUse"
       id="clipPath3274"><path
         d="m 0,841 1190.551,0 0,-841.89 L 0,-0.89 0,841 z"
         id="path3276"
         inkscape:connector-curvature="0" /></clipPath><clipPath
       clipPathUnits="userSpaceOnUse"
       id="clipPath3280"><path
         d="m 0.030029,841.95 1190.579971,0 0,-841.92 -1190.579971,0 0,841.92 z"
         id="path3282"
         inkscape:connector-curvature="0" /></clipPath><clipPath
       clipPathUnits="userSpaceOnUse"
       id="clipPath3368"><path
         d="m 857.757,199.708 -131.437,0 0,-82.143 131.437,0 0,82.143 z"
         id="path3370"
         inkscape:connector-curvature="0" /></clipPath><clipPath
       clipPathUnits="userSpaceOnUse"
       id="clipPath3388"><path
         d="m 0,841 1190.551,0 0,-841.89 L 0,-0.89 0,841 z"
         id="path3390"
         inkscape:connector-curvature="0" /></clipPath><clipPath
       clipPathUnits="userSpaceOnUse"
       id="clipPath3394"><path
         d="m 0.030029,841.95 1190.579971,0 0,-841.92 -1190.579971,0 0,841.92 z"
         id="path3396"
         inkscape:connector-curvature="0" /></clipPath><clipPath
       clipPathUnits="userSpaceOnUse"
       id="clipPath3406"><path
         d="m 1066.454,199.708 -131.437,0 0,-82.143 131.437,0 0,82.143 z"
         id="path3408"
         inkscape:connector-curvature="0" /></clipPath><clipPath
       clipPathUnits="userSpaceOnUse"
       id="clipPath3428"><path
         d="m 857.757,369.629 -131.437,0 0,-82.143 131.437,0 0,82.143 z"
         id="path3430"
         inkscape:connector-curvature="0" /></clipPath><clipPath
       clipPathUnits="userSpaceOnUse"
       id="clipPath3450"><path
         d="m 1066.454,369.629 -131.437,0 0,-82.143 131.437,0 0,82.143 z"
         id="path3452"
         inkscape:connector-curvature="0" /></clipPath></defs><sodipodi:namedview
     pagecolor="#ffffff"
     bordercolor="#666666"
     borderopacity="1"
     objecttolerance="10"
     gridtolerance="10"
     guidetolerance="10"
     inkscape:pageopacity="0"
     inkscape:pageshadow="2"
     inkscape:window-width="685"
     inkscape:window-height="480"
     id="namedview3006"
     showgrid="false"
     fit-margin-top="0"
     fit-margin-left="0"
     fit-margin-right="0"
     fit-margin-bottom="0"
     inkscape:zoom="2.8284271"
     inkscape:cx="38.398155"
     inkscape:cy="61.078983"
     inkscape:window-x="-1"
     inkscape:window-y="0"
     inkscape:window-maximized="0"
     inkscape:current-layer="g3012" /><g
     id="g3012"
     inkscape:groupmode="layer"
     inkscape:label="Swansea Corporate Identity Guidelines"
     transform="matrix(1.25,0,0,-1.25,-908.21114,688.26375)"><path
       d="m 804.078,535.285 c -0.364,0.01 -0.603,-0.256 -0.905,-0.4 -0.233,-0.152 -0.409,-0.394 -0.697,-0.419 -0.108,0.04 -0.056,0.167 -0.033,0.239 0.033,0.042 0.069,0.082 0.067,0.142 -0.104,0.092 -0.232,0.018 -0.329,-0.017 -0.249,-0.081 -0.511,-0.285 -0.772,-0.102 -0.028,0.074 -0.125,0.13 -0.076,0.219 0.115,0.11 0.374,0.018 0.432,0.203 -0.171,0.065 -0.363,0.043 -0.561,0.012 -0.077,0.055 -0.032,0.16 -0.009,0.223 0.293,0.21 0.627,0.118 0.96,0.083 0.349,-0.124 0.796,-0.262 1.177,-0.078 0.205,0.238 0.074,0.584 0.019,0.854 -0.186,0.393 -0.308,0.826 -0.74,1.118 -0.446,0.485 -1.217,0.405 -1.815,0.266 -0.818,-0.11 -1.109,-0.357 -1.907,0.014 -1.008,0.495 -1.848,1.429 -2.634,2.221 -0.514,0.355 -1.198,0.543 -1.794,0.356 -1.182,-0.313 -2.156,-1.083 -3.282,-1.516 -0.997,-0.38 -2.153,-0.991 -3.285,-0.485 l -0.222,0.164 c -0.023,0.102 -0.073,0.286 0.07,0.34 0.717,0.142 1.579,0.156 2.218,-0.183 0.195,0.147 0.211,0.486 0.492,0.558 0.401,0.163 0.845,0.368 1.295,0.211 0.096,0.004 0.177,0.07 0.181,0.154 -0.004,0.466 0.223,0.944 0.685,1.134 0.16,0.089 0.364,0.097 0.54,0.148 0.33,-0.028 0.645,-0.103 0.964,-0.218 0.043,0.103 -0.015,0.232 -0.005,0.358 0.189,0.593 0.798,0.168 1.193,0.203 0.68,-0.023 1.271,0.196 1.775,0.57 0.095,0.038 0.249,0.044 0.294,-0.073 -0.016,-0.134 -0.122,-0.336 -0.18,-0.513 0.019,-0.101 0.088,-0.186 0.195,-0.23 0.209,-0.074 0.394,0.029 0.573,0.083 0.42,0.169 0.463,0.509 0.913,0.649 0.443,0.091 0.198,-0.219 0.16,-0.317 -0.129,-0.148 -0.183,-0.265 -0.27,-0.433 0.118,-0.125 0.325,-0.083 0.487,-0.105 0.465,0.059 0.317,0.17 0.798,0.315 0.293,-0.116 -0.111,-0.278 -0.123,-0.429 -0.039,-0.107 0.028,-0.212 0.125,-0.256 0.696,-0.34 1.528,-0.413 2.319,-0.413 0.709,0.03 1.382,0.161 1.924,0.544 0.058,0.028 0.133,-0.023 0.156,-0.077 -0.221,-0.453 -0.728,-0.559 -1.133,-0.781 -0.762,-0.248 -1.56,-0.184 -2.355,0.036 -0.019,0 -0.034,-0.025 -0.048,-0.042 l 0.029,-0.14 c 0.183,-0.346 0.409,-0.674 0.667,-0.977 0.237,-0.236 0.656,-0.084 0.914,-0.146 0.159,0.018 0.371,0.021 0.515,0.01 0.107,-0.24 0.114,-0.517 0.19,-0.77 0.16,-0.705 0.351,-1.578 1.15,-1.871 0.399,-0.174 0.843,-0.268 1.302,-0.271 0.081,-0.037 0.114,-0.101 0.153,-0.176 -0.548,-0.316 -1.129,0.139 -1.757,0.011 z m -7.866,1.965 -0.149,-0.418 c -0.354,-0.425 -0.943,-0.631 -1.133,-1.115 -0.02,-0.095 0.055,-0.197 0.105,-0.288 0.209,-0.247 0.591,-0.092 0.824,-0.307 0.038,-0.115 -0.069,-0.194 -0.137,-0.24 -0.617,0.034 -1.114,0.415 -1.802,0.341 -0.44,-0.029 -0.841,-0.111 -1.127,-0.454 -0.201,-0.053 -0.447,-0.296 -0.655,-0.067 0.013,0.082 0.018,0.163 0.071,0.231 0.066,0.069 0.19,0.064 0.264,0.165 -0.009,0.049 -0.031,0.117 -0.1,0.117 l -0.515,-0.163 c -0.045,0.025 -0.111,0.045 -0.145,0.107 -0.034,0.168 0.161,0.266 0.289,0.337 0.167,0.008 0.36,0.045 0.504,-0.023 0.046,-0.005 0.054,0.046 0.032,0.07 -0.085,0.063 -0.217,0.052 -0.268,0.157 0.005,0.093 0.092,0.154 0.173,0.181 0.397,0.078 0.626,-0.348 1.003,-0.354 0.852,-0.05 1.336,0.705 1.875,1.18 0.212,0.258 0.487,0.492 0.599,0.785 -0.237,0.152 -0.606,0.08 -0.845,0.05 -0.138,-10e-4 -0.208,0.106 -0.254,0.202 -0.051,0.146 -0.018,0.273 0.031,0.398 0.186,0.255 0.441,0.475 0.697,0.669 0.157,0.198 0.318,0.406 0.407,0.654 0.287,-0.123 0.476,-0.399 0.712,-0.61 0.285,-0.341 0.641,-0.626 0.97,-0.963 -0.42,-0.36 -1.02,-0.313 -1.426,-0.642 z m -2.113,1.421 -0.043,-0.003 c -0.026,0.147 -0.005,0.318 -0.121,0.432 l -0.042,-0.005 c -0.275,-0.399 -0.39,-0.971 -0.92,-1.167 -0.099,-0.028 -0.199,0.027 -0.234,0.132 -0.079,0.253 0.221,0.393 0.168,0.636 -0.107,0.007 -0.21,-0.124 -0.251,-0.23 -0.15,-0.305 -0.227,-0.644 -0.526,-0.878 l -0.086,0 c -0.027,0.206 0.116,0.432 0.009,0.622 -0.114,-0.06 -0.157,-0.203 -0.21,-0.316 -0.152,-0.41 -0.345,-0.951 -0.834,-1.105 -0.109,-0.021 -0.223,0.021 -0.311,0.109 0.057,0.31 0.276,0.575 0.271,0.901 -0.023,0.031 -0.083,0.048 -0.116,0.015 -0.266,-0.408 -0.443,-1.014 -0.968,-1.256 -0.155,-0.048 -0.332,-0.079 -0.495,-0.093 0.054,0.295 0.319,0.542 0.41,0.844 0.009,0.082 -0.007,0.187 -0.107,0.198 l -0.117,-0.066 c -0.265,-0.48 -0.556,-1.219 -1.237,-1.242 -0.198,-0.056 -0.409,-0.013 -0.542,0.138 0.215,0.336 0.549,0.635 0.772,0.99 0.007,0.017 -0.028,0.039 -0.044,0.043 l -0.16,-0.041 c -0.371,-0.423 -0.66,-0.781 -1.171,-0.993 -0.39,-0.157 -0.826,-0.017 -1.181,0.193 -0.042,0.041 -0.091,0.096 -0.049,0.136 0.628,0.088 1.206,0.547 1.487,1.148 0.773,-0.133 1.586,-0.317 2.365,-0.096 0.565,0.102 1.095,0.355 1.614,0.556 0.963,0.421 1.893,0.869 2.826,1.339 0.477,0.152 1.012,0.14 1.51,-0.067 l 0.004,-0.052 c -0.187,-0.248 -0.414,-0.373 -0.66,-0.489 -0.328,-0.062 -0.093,0.283 -0.2,0.441 l -0.086,-0.001 c -0.199,-0.306 -0.334,-0.639 -0.725,-0.773 z m -9.871,-2.415 c -0.23,-0.226 -0.554,-0.505 -0.494,-0.799 0.187,-0.33 0.559,-0.382 0.865,-0.509 0.037,-0.083 -0.029,-0.176 -0.11,-0.223 -0.572,0.023 -0.995,0.442 -1.628,0.306 -0.444,-0.021 -0.833,-0.206 -1.149,-0.528 -0.242,-0.106 -0.524,-0.201 -0.805,-0.127 -0.086,0.057 -0.027,0.15 -0.016,0.213 0.134,0.278 0.446,0.296 0.689,0.395 0.016,0.064 -0.074,0.107 -0.113,0.132 -0.278,-0.004 -0.603,-0.031 -0.828,-0.184 -0.121,-0.03 -0.229,0.031 -0.325,0.087 -0.051,0.066 -0.092,0.157 -0.051,0.239 0.01,0.079 0.088,0.127 0.162,0.158 0.276,0.052 0.568,-0.116 0.797,0.055 -0.01,0.06 0.02,0.166 -0.074,0.151 -0.139,0.024 -0.303,-0.056 -0.434,0.016 0.032,0.054 0.037,0.104 0.112,0.131 l -0.013,0.008 c 0.15,0.028 0.395,0.062 0.568,-0.054 0.356,-0.246 0.9,-0.388 1.3,-0.147 0.776,0.481 1.332,1.405 2.024,1.996 0.476,0.47 0.93,0.879 1.431,1.312 l 0.199,0.097 c 0.276,-0.049 0.536,-0.106 0.798,-0.199 0.022,-0.556 -0.281,-1.05 -0.726,-1.37 -0.77,-0.291 -1.495,-0.675 -2.179,-1.156 z m -0.18,2.452 c 0.076,0.188 0.253,0.07 0.371,0.035 0.193,-0.115 0.412,-0.138 0.617,-0.224 -0.198,-0.284 -0.456,-0.54 -0.717,-0.791 -0.098,0.016 -0.142,0.129 -0.186,0.204 -0.1,0.239 -0.233,0.523 -0.085,0.776 z m -0.41,0.252 -0.091,-0.318 c -0.463,0.262 -0.559,0.75 -1.019,1.048 -0.286,0.21 -0.589,0.367 -0.915,0.466 -0.219,0.01 -0.417,-0.079 -0.527,-0.263 -0.041,-0.18 -0.072,-0.364 0.054,-0.52 0.106,-0.1 0.245,-0.183 0.387,-0.231 0.032,-0.027 0.016,-0.067 0.031,-0.098 -0.042,-0.078 -0.138,-0.055 -0.196,-0.065 -0.321,0.061 -0.559,0.338 -0.864,0.422 -0.294,0.022 -0.375,-0.642 -0.719,-0.309 -0.023,0.098 0.01,0.251 -0.128,0.271 l -0.066,-0.022 c -0.23,-0.131 -0.356,-0.468 -0.644,-0.409 -0.027,0.034 -0.051,0.087 -0.025,0.124 l 0.18,0.148 c -0.186,0.15 -0.469,0.029 -0.687,0.02 -0.092,0.068 -0.047,0.227 -0.022,0.318 0.206,0.23 0.522,0.008 0.759,-0.013 0.921,-0.043 1.489,0.792 2.305,1.03 0.852,-0.012 1.432,-0.734 2.236,-0.874 0.101,-0.038 0.021,-0.137 0.034,-0.188 0.04,-0.189 0.147,-0.405 -0.083,-0.537 z m 0.663,0.996 c 0.293,0.083 0.498,-0.208 0.74,-0.306 l 0.755,-0.321 -0.561,-0.553 c -0.501,0.017 -0.958,0.367 -1.165,0.799 -0.076,0.177 0.119,0.293 0.231,0.381 z m 0.326,0.666 c 0.139,0.18 0.362,0.178 0.507,0.342 l 0.042,0 c 0.192,-0.244 0.436,-0.447 0.72,-0.538 l 0.022,-0.04 -0.091,-0.795 c -0.425,0.073 -0.795,0.37 -1.143,0.662 -0.021,0.13 -0.179,0.244 -0.057,0.369 z m 1.219,1.496 c 0.217,0.071 0.425,0.056 0.644,0.164 -0.08,-0.602 -0.396,-1.012 -0.511,-1.613 -0.23,0.005 -0.492,0.212 -0.611,0.526 -0.011,0.46 0.451,0.459 0.478,0.923 z m -1.578,0.474 c 0.074,0.129 0.096,0.336 0.275,0.359 0.511,0.037 1.157,0.055 1.57,0.376 0.222,0.17 0.353,0.42 0.4,0.688 l -0.012,0.336 c 0.337,0.262 0.714,0.461 0.941,0.811 0.037,0.073 -0.064,0.126 -0.114,0.129 -0.723,0.064 -1.494,-0.024 -2.088,-0.352 -0.062,-0.037 -0.021,-0.101 0.014,-0.13 0.182,-0.085 0.396,-0.291 0.62,-0.158 0.232,0.085 0.278,0.423 0.564,0.36 0.052,-0.035 0.14,-0.012 0.177,-0.061 -0.177,-0.264 -0.416,-0.663 -0.807,-0.609 -0.508,0.088 -0.996,0.24 -1.485,0.013 -0.004,0.279 -0.148,0.585 -0.455,0.697 l -0.321,0.149 c 0.353,0.3 0.939,0.116 1.336,0.007 0.571,0.291 1.356,0.529 1.997,0.27 0.61,0.153 1.14,0.444 1.826,0.425 l 0.433,-0.052 c -0.155,-0.272 -0.573,-0.514 -0.563,-0.874 0.067,-0.192 0.209,-0.36 0.305,-0.54 -0.221,0.004 -0.413,-0.091 -0.53,-0.226 0.033,-0.37 0.218,-0.696 0.299,-1.02 -0.112,-0.076 -0.239,0.085 -0.354,-0.022 -0.19,-0.403 -0.169,-0.968 0.099,-1.319 l 0.13,-0.198 c -0.728,-0.02 -1.297,-0.602 -1.551,-1.197 -0.074,-0.286 -0.163,-0.587 -0.095,-0.906 l -0.078,-0.008 c -0.837,1.4 0.893,2.294 1.048,3.554 0.006,0.473 0.204,1.166 -0.243,1.541 l -0.078,-0.073 c -0.042,-0.59 -0.145,-1.282 -0.806,-1.561 -0.789,-0.245 -1.658,-0.238 -2.454,-0.409 z m -0.017,1.322 c 0.16,0.37 0.661,0.193 0.984,0.183 0.156,-0.022 0.305,-0.067 0.42,-0.182 0.019,-0.199 -0.221,-0.294 -0.345,-0.423 -0.192,0.014 -0.252,0.215 -0.422,0.259 -0.206,0.089 -0.434,0.136 -0.637,0.163 z m 5.557,-5.041 c -0.195,-0.056 -0.342,0.163 -0.53,0.179 l -0.302,0.02 c -0.041,0.144 0.149,0.164 0.251,0.22 0.192,0.064 0.367,0.166 0.531,0.302 0.107,0.002 0.13,-0.115 0.173,-0.184 0.013,-0.182 0.053,-0.404 -0.123,-0.537 z m -0.232,2.062 c 1.217,0.475 0.775,1.911 1.612,2.667 1.452,1.291 3.331,1.633 5.295,1.779 1.099,0.038 2.396,0.072 3.41,-0.118 0.008,-0.032 0.031,-0.051 0.027,-0.091 -0.121,-0.125 -0.298,-0.088 -0.441,-0.111 -2.518,0.043 -5.38,0.143 -7.274,-1.501 -0.607,-0.541 -1.115,-1.22 -1.385,-1.919 -0.344,-0.839 -1.084,-1.763 -1.974,-2.155 -0.524,-0.13 -1.016,-0.32 -1.557,-0.089 -0.13,0.126 -0.184,0.32 -0.124,0.491 0.1,0.419 0.455,0.801 0.872,0.93 0.488,0.098 1.037,0.053 1.539,0.117 z m 8.016,2.521 c -0.055,0.034 -0.121,0.102 -0.192,0.135 -0.889,0.56 -1.908,0.786 -2.881,0.721 -0.064,-0.014 -0.193,-0.032 -0.227,0.018 0.944,0.411 2.219,0.479 3.357,0.279 l 0.409,-0.114 0.031,-0.042 c -0.362,-0.176 -0.512,-0.592 -0.497,-0.997 z m -1.371,-0.301 c -0.324,-0.117 -0.523,-0.434 -0.721,-0.715 -0.707,0.428 -1.394,0.84 -2.297,0.76 -0.236,-0.022 -0.494,-0.04 -0.708,-0.103 0.011,0.157 0.185,0.209 0.309,0.289 0.787,0.465 1.781,0.667 2.729,0.4 0.423,-0.123 0.829,-0.214 1.173,-0.441 -0.14,-0.079 -0.315,-0.114 -0.485,-0.19 z m -4.771,-3.37 c -0.412,0.012 -0.755,-0.15 -1.056,-0.375 -0.193,0.085 -0.123,0.35 -0.169,0.511 0.205,0.224 0.463,0.429 0.664,0.628 0.331,-0.118 0.484,-0.472 0.561,-0.764 z m -0.372,1.098 c 0,0 0.38,1.004 1.266,0.823 0.768,-0.157 0.973,-0.462 0.973,-0.598 0,0 -1.138,-0.112 -1.551,-0.789 0,0 -0.071,0.49 -0.688,0.564 z m 3.502,1.122 c -0.347,-0.066 -0.706,-0.319 -0.832,-0.642 l -0.027,0 c -0.279,0.444 -0.786,0.664 -1.294,0.731 -0.311,0.015 -0.56,-0.067 -0.846,-0.168 0.108,0.359 0.496,0.526 0.812,0.676 0.782,0.291 1.719,0.073 2.42,-0.291 0.087,-0.063 0.152,-0.134 0.213,-0.204 -0.133,-0.047 -0.312,-0.068 -0.446,-0.102 z m 9.665,-0.285 c -0.05,0.015 -0.05,0.04 -0.068,0.078 0.082,0.52 0.152,1.095 0.164,1.6 l 0.043,0.159 c 0.143,-0.074 0.215,-0.193 0.313,-0.321 0.321,-0.389 0.515,-0.829 0.633,-1.314 l -0.008,-0.195 c -0.142,-0.049 -0.197,0.107 -0.295,0.17 -0.097,0.134 -0.129,0.316 -0.324,0.385 -0.113,-0.192 -0.269,-0.395 -0.458,-0.562 z m 2.608,-6.385 c -0.133,0.278 -0.443,0.333 -0.718,0.335 -0.067,0.087 -0.158,0.158 -0.259,0.193 -0.562,-0.025 -1.23,-0.015 -1.687,0.404 -0.538,0.566 -0.485,1.365 -0.536,2.106 -0.049,0.225 0.253,0.528 -0.14,0.606 -0.465,-0.104 -1.001,-0.14 -1.433,-0.185 -0.144,0.012 -0.266,0.066 -0.378,0.168 -0.021,0.05 -0.057,0.115 -0.021,0.178 0.418,0.016 0.674,0.016 1.067,0.054 1.054,0.096 2.043,0.852 2.394,1.811 0.043,0.122 0.016,0.27 0.074,0.388 0.16,-0.088 0.272,-0.225 0.362,-0.388 0.099,-0.117 0.072,-0.296 0.209,-0.387 0.058,-0.008 0.175,-0.054 0.207,0.028 0.177,0.926 -0.098,1.563 -0.518,2.381 -0.345,0.437 -0.708,0.99 -1.249,1.292 -0.079,0.022 -0.182,0.012 -0.248,-0.07 0.107,-0.946 -0.017,-1.998 -0.286,-2.821 -0.03,-0.09 -0.184,-0.172 -0.119,-0.299 0.047,-0.056 0.113,-0.124 0.218,-0.077 0.248,0.175 0.515,0.348 0.749,0.544 l 0.018,-0.023 c -0.069,-0.256 -0.104,-0.608 -0.338,-0.846 -0.705,-0.531 -1.712,-0.57 -2.64,-0.493 -0.312,0.077 -0.717,0.073 -1,0.262 -0.027,0.316 0.192,0.43 0.255,0.801 -0.059,0.089 -0.17,0.058 -0.237,0.096 -0.617,0.007 -0.851,-0.273 -1.434,-0.441 l -0.026,0.035 0.439,0.689 0.021,0.104 c -0.066,0.164 -0.268,0.128 -0.395,0.125 -0.543,-0.191 -0.798,-0.339 -1.325,-0.59 l -0.062,0.074 c 0,0.195 0.099,0.352 0.249,0.46 0.044,0.05 0.045,0.117 -0.003,0.168 -0.227,0.075 -0.398,0.052 -0.63,0.01 -0.844,-0.334 -1.63,-0.757 -2.616,-0.664 l -0.121,0.074 c -0.022,0.062 -0.04,0.117 0.007,0.18 0.289,0.177 0.723,0.169 1.057,0.145 0.102,-0.016 0.107,0.066 0.099,0.137 0.115,0.421 0.479,0.856 0.911,0.938 0.551,0.123 1.105,0.021 1.538,-0.049 0.224,0.165 -0.161,0.227 -0.126,0.388 -0.121,0.445 0.215,0.861 0.609,1.122 0.84,0.533 2.042,0.598 3.098,0.559 0.084,0.022 0.176,-0.043 0.257,0.024 0.019,0.062 0.004,0.17 -0.034,0.234 -0.939,0.319 -1.928,0.505 -2.952,0.606 -2.166,0.189 -4.443,0.026 -6.387,-0.615 -1.02,-0.365 -2.048,-0.799 -2.733,-1.72 -0.35,-0.481 -0.171,-1.172 -0.417,-1.684 -0.047,-0.081 -0.113,-0.139 -0.181,-0.187 -0.252,0.221 -0.473,0.615 -0.592,0.864 -0.007,0.069 -0.042,0.18 0.028,0.236 0.175,0.155 0.405,-0.003 0.59,-0.044 0.104,-0.027 0.211,0 0.252,0.077 -0.022,0.316 -0.199,0.575 -0.431,0.814 -0.137,0.16 -0.335,0.402 -0.218,0.594 0.168,-0.141 0.412,-0.167 0.619,-0.148 0.138,0 0.198,0.129 0.153,0.227 -0.267,0.278 -0.546,0.544 -0.607,0.904 -0.004,0.564 0.459,0.649 0.842,1.006 -0.003,0.046 -0.028,0.085 -0.081,0.11 -0.607,0.127 -1.315,0.188 -1.944,0.041 -0.151,0.036 -0.054,0.228 -0.191,0.304 -0.527,0.028 -0.998,-0.236 -1.377,-0.564 -0.661,-0.09 -1.216,-0.048 -1.774,-0.379 -0.713,0.106 -1.409,0.073 -1.969,-0.315 -0.127,-0.154 -0.377,-0.295 -0.3,-0.537 0.025,-0.036 0.057,-0.03 0.094,-0.042 0.275,0.119 0.655,0.173 0.958,0.055 0.077,-0.113 0.187,-0.212 0.211,-0.35 -0.024,-0.154 0.11,-0.46 -0.165,-0.511 -0.469,-0.024 -0.961,-0.175 -1.44,-0.264 -0.337,-0.026 -0.658,-0.079 -0.952,0.018 -0.155,0.085 0.064,0.216 0.093,0.323 0.055,0.134 0.321,0.156 0.241,0.341 -0.054,0.04 -0.128,0.098 -0.196,0.058 -0.828,-0.334 -1.693,0.088 -2.426,0.49 -0.096,0.018 -0.167,0.127 -0.262,0.06 -0.063,-0.175 0.113,-0.309 0.192,-0.447 0.635,-0.547 1.096,-1.042 1.57,-1.718 0.084,-0.093 0.118,-0.308 0.299,-0.261 0.12,0.135 0.087,0.346 0.106,0.507 0.012,0.363 0.334,-0.036 0.5,0.039 0.94,-0.211 1.531,0.459 2.382,0.55 0.347,0.004 0.863,0.074 1.16,-0.202 0.031,-0.061 0.069,-0.142 0,-0.2 -0.186,0.051 -0.385,0.045 -0.548,0.14 -0.126,0.033 -0.179,0.163 -0.327,0.155 0.066,-0.493 -0.353,-0.82 -0.465,-1.251 0.008,-0.045 0.056,-0.11 0.112,-0.116 0.648,0.015 1.278,0.168 1.929,0.208 -0.068,-0.26 -0.487,-0.28 -0.542,-0.562 -0.273,0.026 -0.418,-0.226 -0.609,-0.372 -0.152,-0.167 -0.222,-0.354 -0.245,-0.553 -0.171,-0.003 -0.224,-0.154 -0.361,-0.221 -0.033,-0.091 -0.059,-0.19 -0.196,-0.182 0,0 -0.027,-0.053 -0.056,-0.146 -0.658,0.135 -1.253,0.438 -1.875,0.652 -0.15,0.049 -0.346,0.072 -0.482,-0.008 -0.457,-0.273 -0.874,-0.618 -1.344,-0.869 -0.419,-0.266 -0.882,-0.01 -1.335,-0.099 -0.27,-0.076 -0.463,-0.362 -0.504,-0.628 0.106,-0.217 -0.141,-0.386 -0.059,-0.619 0.032,-0.147 0.15,-0.274 0.267,-0.356 0.107,0.025 0.006,0.124 0.012,0.187 -0.017,0.15 0.161,0.233 0.27,0.317 0.074,-0.097 0.178,-0.218 0.131,-0.332 0.013,-0.229 0.138,-0.429 0.364,-0.515 -0.034,0.225 0.066,0.517 0.31,0.667 0.09,0.02 0.088,-0.07 0.162,-0.095 0.023,-0.262 0.064,-0.533 0.303,-0.671 0.096,-0.004 0.221,-0.035 0.302,0.038 0.042,0.073 -0.069,0.079 -0.099,0.135 -0.076,0.16 -0.03,0.342 0.08,0.472 0.202,0.045 0.405,0.15 0.504,0.342 0.022,0.077 0.107,0.111 0.171,0.04 0.233,-0.339 0.725,-0.337 1.091,-0.311 0.078,-0.075 0.095,-0.18 0.118,-0.274 0.042,-0.068 0.063,-0.159 0.161,-0.117 0.139,0.166 0.345,0.371 0.211,0.607 -0.169,0.376 -0.608,0.491 -0.864,0.781 -0.04,0.055 -0.009,0.122 0.029,0.166 0.075,0.049 0.167,0.058 0.262,0.032 0.392,-0.15 0.694,-0.377 0.894,-0.76 0.208,-0.496 0.666,-0.8 1.074,-0.991 0.135,-0.216 0.223,-0.458 0.443,-0.638 -0.568,-0.52 -1.006,-1.242 -1.691,-1.62 -0.391,-0.194 -0.787,0.064 -1.146,0.198 -0.349,0.159 -0.724,0 -0.99,-0.221 -10e-4,-0.148 -0.179,-0.272 -0.301,-0.37 -0.142,-0.13 -0.003,-0.334 -0.021,-0.472 -0.103,-0.098 -0.124,-0.272 -0.071,-0.407 0.083,-0.121 0.124,-0.326 0.274,-0.327 0.024,0.155 0.173,0.267 0.305,0.352 0.12,-0.141 -0.085,-0.306 0,-0.487 0.063,-0.132 0.11,-0.301 0.275,-0.344 0.077,0 0.124,0.086 0.129,0.144 0.116,0.251 0.425,0.228 0.676,0.26 0.493,0.022 0.829,0.416 1.261,0.581 0.727,0.211 1.45,-0.702 2.133,-0.068 0.1,0.068 0.229,0.013 0.306,-0.06 0.049,-0.079 0.113,-0.179 0.206,-0.226 0.057,0.211 0.093,0.493 -0.068,0.675 -0.138,0.104 -0.325,0.185 -0.501,0.106 -0.179,0.182 -0.477,0.097 -0.651,0.287 0.006,0.083 -0.013,0.189 0.03,0.252 0.313,0.322 0.656,0.624 1.059,0.775 0.266,-0.165 0.475,-0.34 0.778,-0.473 0.341,-0.049 0.839,-0.201 1.221,-0.014 l 0.243,-0.117 c 0.485,-0.194 1.019,-0.015 1.41,0.245 0.252,-0.062 0.504,0.004 0.736,0.033 0.19,0.082 0.42,0.085 0.567,0.243 0.183,0.133 0.379,0.045 0.599,0.047 0.472,-0.048 0.745,0.397 0.96,0.674 0.336,-0.091 0.535,0.224 0.705,0.427 0.514,-0.061 0.898,0.282 1.211,0.64 0.325,-0.009 0.581,0.186 0.832,0.371 l 0.078,0.002 0.003,-0.022 c -0.178,-0.138 -0.279,-0.334 -0.327,-0.537 -0.079,-0.267 -0.037,-0.618 0.209,-0.775 0.22,-0.106 0.462,-0.156 0.698,-0.099 l 0.032,-0.038 c -0.342,-0.41 -0.79,-0.818 -1.255,-1.14 -0.396,-0.356 -0.819,0.069 -1.217,0.213 -0.293,0.082 -0.543,-0.077 -0.771,-0.168 -0.173,-0.125 -0.248,-0.247 -0.344,-0.409 -0.18,-0.186 -0.49,-0.141 -0.586,-0.419 -0.02,-0.183 -0.02,-0.419 0.147,-0.524 0.05,0.101 0.137,0.223 0.247,0.231 0.107,0.007 0.212,0.035 0.284,-0.051 -0.028,-0.311 -0.057,-0.596 0.167,-0.794 l 0.097,0.167 c 0.164,0.319 0.557,0.169 0.806,0.28 0.365,0.126 0.694,0.351 1.095,0.421 0.702,0.146 1.248,-0.214 1.883,-0.214 0.253,0.03 0.457,0.197 0.673,0.167 0.2,-0.005 0.117,-0.285 0.284,-0.325 0.033,0.153 0.071,0.29 0.036,0.439 -0.036,0.117 -0.06,0.278 -0.213,0.316 -0.124,0.045 -0.258,0.085 -0.383,-0.003 -0.16,0.169 -0.366,0.187 -0.599,0.196 -0.113,0.03 -0.292,-0.012 -0.307,0.137 l 0.235,0.26 c 0.417,0.155 0.748,0.511 1.176,0.542 0.085,0.061 0.05,0.176 0.051,0.257 0.01,0.108 -0.153,0.231 -0.02,0.309 0.467,0.122 0.882,0.385 1.259,0.639 0.4,-0.517 0.773,-0.906 1.453,-0.909 l 0.018,-0.02 c 0.886,-0.002 1.25,0.484 2.141,0.498 0.195,-0.007 0.47,0.009 0.65,-0.104 0.469,-0.273 0.893,-0.721 0.882,-1.311 -0.031,-0.045 -0.058,-0.142 -0.143,-0.137 -0.558,0.1 -1.127,0.476 -1.689,0.219 -0.322,-0.081 -0.345,-0.446 -0.677,-0.465 -0.229,-0.122 -0.252,-0.369 -0.232,-0.585 l 0.176,-0.148 c 0.042,0.14 0.182,0.168 0.299,0.198 0.022,-0.022 0.04,-0.04 0.032,-0.077 -0.158,-0.133 -0.224,-0.385 -0.149,-0.584 0.062,-0.073 0.093,-0.216 0.192,-0.238 -0.005,0.184 0.099,0.348 0.251,0.418 0.248,-0.067 0.461,0.055 0.67,0.104 0.041,-0.071 -0.026,-0.146 -0.051,-0.212 0.027,-0.103 -0.082,-0.255 0.074,-0.31 0.013,0.099 0.107,0.157 0.184,0.215 l 0.813,0.039 c 0.28,0.07 0.448,0.372 0.663,0.548 0.43,0.333 1.009,0.106 1.504,0.044 0.311,0.035 0.697,-0.051 0.973,0.1 0.128,0.041 0.171,0.25 0.337,0.203 0.212,-0.007 0.269,-0.178 0.425,-0.285 0.144,0.149 0.103,0.383 0.047,0.568 z m -7.222,3.45 c -0.95,0.479 -1.6,0.998 -2.635,1.362 -0.061,-0.007 -0.099,-0.026 -0.142,-0.061 -0.06,-0.054 0.047,-0.103 0.072,-0.137 0.803,-0.269 1.261,-0.698 1.911,-1.179 0.737,-0.573 1.068,-0.548 2.004,-0.642 0.069,-0.016 0.172,-0.014 0.213,0.042 l -0.114,0.115 c -0.565,0.105 -0.768,0.261 -1.309,0.5 z m 0.74,0.35 c 0.057,-0.016 0.142,-0.015 0.169,0.029 -0.188,0.316 -0.099,0.621 -0.373,0.889 -0.408,0.227 -0.552,0.244 -0.979,0.305 -0.062,-0.02 -0.056,-0.081 -0.031,-0.135 0.656,-0.185 0.72,-0.586 1.214,-1.088 z m -12.712,0.681 c 0.008,-0.07 0.066,-0.119 0.144,-0.111 0.363,0.556 1.005,0.631 1.58,0.78 l 0.007,0.062 c -0.509,0.157 -1.025,-0.073 -1.477,-0.246 -0.158,-0.106 -0.277,-0.27 -0.254,-0.485"
       style="fill:#ffffff;fill-opacity:1;fill-rule:nonzero;stroke:none"
       id="path3146"
       inkscape:connector-curvature="0" /><g
       id="g3148"
       style="fill:#ffffff"><g
         id="g3150"
         clip-path="url(#clipPath3152)"
         style="fill:#ffffff"><path
           d="m 809.34,521.843 c -0.016,-0.135 -1.754,-13.446 -17.096,-17.616 -0.783,0.201 -15.039,4.062 -17.143,17.469 -0.013,0.083 -0.088,0.142 -0.172,0.135 -0.084,-0.007 -0.149,-0.078 -0.148,-0.162 0.002,-0.148 0.351,-14.879 17.368,-20.009 0.029,-0.01 0.059,-0.01 0.087,-0.002 0.168,0.044 16.866,4.55 17.425,20.16 0.003,0.086 -0.063,0.159 -0.149,0.166 -0.086,0.007 -0.161,-0.056 -0.172,-0.141"
           style="fill:#ffffff;fill-opacity:1;fill-rule:nonzero;stroke:none"
           id="path3156"
           inkscape:connector-curvature="0" /><path
           d="m 776.061,547.965 c -0.077,-0.028 -0.121,-0.109 -0.102,-0.189 0.019,-0.079 0.095,-0.132 0.176,-0.122 0,0 7.655,1.311 16.074,1.311 8.418,0 16.376,-1.3 16.453,-1.31 0.081,-0.011 0.158,0.041 0.178,0.12 0.02,0.08 -0.024,0.162 -0.101,0.19 -16.152,5.924 -32.515,0.06 -32.678,0"
           style="fill:#ffffff;fill-opacity:1;fill-rule:nonzero;stroke:none"
           id="path3158"
           inkscape:connector-curvature="0" /></g></g><path
       d="m 794.979,519.942 c -0.291,-0.022 -0.576,-0.037 -0.782,-0.257 -0.006,-0.123 0.014,-0.24 0.047,-0.343 1.022,0.6 1.855,-0.297 2.85,-0.26 0,0.13 0.055,0.274 -0.005,0.386 -0.784,0.01 -1.363,0.509 -2.11,0.474 z m -4.106,0.057 c -0.941,0.208 -1.57,-0.546 -2.445,-0.443 -0.028,-0.133 0.01,-0.268 0.016,-0.402 0.827,-0.076 1.359,0.572 2.182,0.482 l 0,-0.007 c 0.312,0.056 0.458,-0.247 0.745,-0.206 0.007,0.155 0.101,0.367 -0.05,0.482 l -0.448,0.094 z m -1.881,0.161 c 0.713,0.047 1.349,0.708 2.092,0.408 0.055,-0.042 0.137,-0.112 0.221,-0.135 l 0.024,0.485 c -0.475,0.201 -1.117,0.092 -1.549,-0.135 -0.453,-0.152 -0.902,-0.327 -1.395,-0.169 -0.019,-0.158 -0.035,-0.345 0.039,-0.483 l 0.568,0.029 z m 7.023,0.179 c 0.327,-0.117 0.695,-0.253 1.06,-0.179 l 0,0.454 c -0.398,-0.02 -0.726,0.124 -1.08,0.22 -0.488,0.256 -1.153,0.225 -1.729,0.072 -0.169,-0.09 -0.084,-0.312 -0.09,-0.458 0.083,0 0.153,0.033 0.2,0.078 0.615,0.068 1.171,0.129 1.639,-0.187 z m 0.403,1.385 c -0.635,0.288 -1.383,0.634 -2.098,0.251 -0.171,-0.105 -0.109,-0.342 -0.106,-0.507 0.327,0.175 0.693,0.368 1.068,0.256 0.429,-0.169 0.887,-0.346 1.347,-0.497 0.146,0 0.303,-0.108 0.426,0 l 0.02,0.471 c -0.208,-0.031 -0.446,-0.007 -0.657,0.026 z m -6.002,0.44 c -0.507,-0.061 -0.941,-0.328 -1.424,-0.466 -0.184,-0.039 -0.405,0.018 -0.588,-0.046 l 0.04,-0.399 c 0.39,0.012 0.757,0.083 1.097,0.215 0.415,0.262 0.974,0.35 1.473,0.256 0.105,-0.033 0.207,-0.194 0.357,-0.143 l 0,0.292 c -0.225,0.298 -0.624,0.239 -0.955,0.291 z m 6.673,0.499 c -0.602,-0.018 -1.094,0.301 -1.602,0.453 -0.409,0.103 -0.815,-0.079 -1.237,-0.156 -0.016,-0.169 -0.093,-0.304 -0.053,-0.468 0.047,0 0.089,0 0.123,-0.017 0.252,0.164 0.576,0.235 0.879,0.218 0.621,0.062 1.137,-0.472 1.832,-0.463 0.107,0.105 0.029,0.269 0.058,0.433 z m -0.02,1.039 c -0.9,0.086 -1.546,0.862 -2.491,0.529 -0.125,-0.019 -0.278,-0.01 -0.328,-0.152 -0.016,-0.115 -0.023,-0.28 0.016,-0.385 0.348,0.11 0.714,0.254 1.073,0.158 0.6,-0.077 1.039,-0.633 1.711,-0.54 0.065,0.095 0.039,0.314 0.019,0.39 z m -2.819,1.197 c 0.227,0.094 0.469,0.105 0.7,0.13 0.761,0.158 1.242,-0.648 2.077,-0.604 l 0.023,0.023 c 0.005,0.128 0.121,0.31 -0.023,0.402 -0.245,0 -0.44,0.124 -0.659,0.168 -0.634,0.367 -1.478,0.626 -2.177,0.205 0.036,-0.11 -0.079,-0.293 0.059,-0.324 z m -5.558,-0.281 c 0.147,0.098 0.378,0.093 0.54,0.208 l 0.052,-0.081 c 0.016,-0.617 0.034,-0.929 -0.004,-1.539 -0.057,-0.2 -0.322,-0.242 -0.518,-0.265 -0.035,0.171 -0.07,0.37 -0.054,0.551 0.079,0.093 0.19,0 0.274,0.097 0.016,0.265 -0.041,0.413 0,0.668 -0.055,0.16 -0.255,0.058 -0.335,0.094 -0.032,0.091 -0.013,0.194 0.045,0.267 z m -0.307,-2.315 c 0.432,0.013 0.816,0.16 1.191,0.313 0.527,0.274 1.229,0.223 1.702,-0.099 0.016,0.157 0.093,0.364 -0.006,0.515 -0.426,0.174 -0.976,0.118 -1.422,0.044 -0.176,0.074 -0.083,0.317 -0.14,0.46 0.046,0.06 -0.005,0.144 0.022,0.196 0.008,0.067 0.09,0.143 0.177,0.143 0.412,0.143 1.006,0.173 1.385,-0.119 0.061,0.043 -0.022,0.096 0.035,0.133 -0.051,0.075 -0.008,0.207 -0.051,0.342 -0.483,0.204 -1.078,0.217 -1.546,-0.019 -0.064,0.223 -0.137,0.522 0.048,0.693 0.453,0.163 1.005,0.163 1.449,0 0.092,0.088 -0.008,0.208 0.043,0.303 l -0.095,0.091 c -0.679,0.366 -1.558,0.051 -2.225,-0.171 -0.225,-0.09 -0.548,0.007 -0.714,-0.198 0.046,-0.334 0.052,-0.699 0.03,-1.055 l 0.022,-0.023 -0.022,-0.023 c 0.022,-0.498 0.046,-1.038 0.117,-1.526 z m 14.269,-3.944 c -0.008,-1.117 -0.391,-2.123 -0.829,-3.071 -0.054,-0.09 -0.095,-0.183 -0.218,-0.193 -0.075,0.083 -0.183,0.152 -0.237,0.232 l 0.132,0.21 c 0.616,1.378 1.008,2.925 0.974,4.44 l 0.088,0.058 c 0.159,-0.13 0.096,-0.377 0.126,-0.567 -0.025,-0.256 0.046,-0.459 -0.017,-0.712 0.03,-0.127 -0.033,-0.268 -0.019,-0.397 z m -1.072,1.521 -0.036,0.075 c 0.156,0.864 0.295,1.752 0.451,2.624 0.266,-0.612 0.271,-1.345 0.321,-2.06 -0.211,-0.257 -0.511,-0.366 -0.736,-0.639 z m -1.291,-6.779 c -0.768,-0.689 -1.636,-1.141 -2.456,-1.695 -0.282,-0.161 -0.578,-0.318 -0.924,-0.379 -0.07,0 -0.146,0.036 -0.201,0.091 l 0.02,0.04 c 1.085,0.59 2.034,1.283 2.984,2.092 0.286,0.297 0.652,0.611 0.773,1.006 0.153,0.075 0.332,0.043 0.445,-0.128 -0.074,-0.393 -0.41,-0.69 -0.641,-1.027 z m -4.019,-1.813 c -0.404,-0.2 -0.809,-0.406 -1.218,-0.458 l -0.287,-0.092 c 0.146,0.274 0.367,0.42 0.581,0.656 0.386,0.296 0.796,0.59 1.124,0.876 0.025,0 0.055,0.006 0.083,0.014 -0.07,-0.353 -0.254,-0.642 -0.283,-0.996 z m 1.646,15.326 c -0.141,-0.078 -0.334,0.035 -0.5,0.02 0.067,0.153 0.178,0.251 0.285,0.363 l 1.887,1.657 c 0.553,0.369 1.08,0.96 1.6,1.343 0.128,-0.047 0.156,-0.163 0.228,-0.258 -0.353,-0.392 -0.85,-0.792 -1.241,-1.163 -0.741,-0.682 -1.507,-1.328 -2.259,-1.962 z m 0.423,-5.208 c 0.022,-1.516 -0.077,-3.039 -0.112,-4.41 -0.387,-0.124 -0.851,-0.024 -1.264,-0.007 -0.903,0.103 -1.544,0.656 -2.46,0.641 -0.533,0.04 -1.028,-0.051 -1.464,-0.207 -0.079,0.187 -0.07,0.467 -0.102,0.647 l 0,2.71 c 0.043,0.68 -0.102,1.364 -0.047,1.975 0.006,1.138 -0.065,2.049 0.07,3.127 -0.006,0.185 0.186,0.289 0.352,0.327 0.535,0.144 1.215,0.359 1.802,0.125 0.486,-0.149 0.976,-0.336 1.555,-0.437 0.521,-0.103 1.039,-0.07 1.593,0.01 0.136,-1.265 0.067,-2.497 0.067,-3.718 -0.107,-0.235 -0.007,-0.528 0.01,-0.783 z m -5.517,5.448 c -0.085,-0.079 -0.163,0.017 -0.249,0.024 -0.194,0.365 -0.128,0.843 -0.156,1.256 l 0.045,0.141 0.299,-0.076 c -0.059,-0.457 0.102,-0.88 0.061,-1.345 z m -0.276,-14.55 -0.066,0.013 c -0.138,0.553 -0.035,1.134 -0.097,1.72 -0.029,0.511 -0.029,1.101 -0.041,1.677 -0.006,0.069 0.048,0.11 0.075,0.165 0.083,-0.055 0.188,-0.015 0.247,-0.105 0.038,-1.174 0.063,-2.135 0.109,-3.304 0.017,-0.147 -0.133,-0.124 -0.227,-0.166 z m -2.233,5.289 c -0.564,-0.112 -1.015,-0.462 -1.618,-0.478 -0.698,-0.078 -1.307,0.112 -1.916,0.109 -0.114,0.09 0.011,0.214 -0.013,0.329 -0.141,0.935 0.024,1.806 -0.051,2.759 -0.05,0.544 0.094,1.203 0.019,1.815 0.032,0.683 -0.069,1.553 -0.019,2.243 -0.034,0.019 0.007,0.075 0,0.105 -0.083,0.512 -0.057,1.049 0.019,1.582 0.385,-0.115 0.841,-0.218 1.296,-0.236 0.486,0.006 0.92,0.134 1.344,0.269 0.494,0.119 1.01,0.229 1.512,0.353 0.478,0 0.852,-0.145 1.274,-0.269 0.15,-0.067 0.315,-0.168 0.329,-0.335 -0.032,-1.257 -0.032,-2.689 -0.009,-3.955 0.093,-0.453 -0.081,-0.926 0.05,-1.361 -0.019,-0.826 0.087,-1.945 -0.041,-2.768 -0.05,-0.059 -0.042,-0.143 -0.106,-0.168 -0.081,-0.008 -0.139,0.058 -0.207,0.089 -0.606,0.09 -1.305,0.12 -1.863,-0.083 z m -4.664,9.995 -0.718,0.699 c 0.012,0.073 -0.034,0.221 0.076,0.269 l 0.04,0.016 c 0.797,-0.575 1.595,-1.213 2.24,-1.958 -0.048,-0.206 -0.224,0 -0.346,-0.024 -0.441,0.295 -0.83,0.71 -1.292,0.998 z m 0.509,-11.182 c -0.5,-0.383 -0.9,-0.835 -1.407,-1.167 -0.03,0.11 -0.184,0.181 -0.132,0.315 0.418,0.425 0.959,0.836 1.386,1.232 0.032,0.04 0.096,0 0.135,0.026 0.018,-0.132 0.122,-0.291 0.018,-0.406 z m 1.074,-4.301 c 0.382,-0.277 0.875,-0.445 1.269,-0.754 -0.539,-0.048 -0.982,0.279 -1.464,0.441 -0.666,0.386 -1.355,0.74 -1.923,1.304 -0.305,0.249 -0.611,0.519 -0.832,0.832 0.013,0.363 -0.159,0.672 -0.477,0.875 -0.197,-0.048 -0.271,0.179 -0.378,0.284 -0.304,0.828 -0.863,1.555 -1.047,2.442 -0.118,0.441 -0.212,0.882 -0.223,1.357 0.018,0.035 0,0.072 0.018,0.113 0.186,-0.445 0.292,-0.951 0.476,-1.397 0.573,-1.175 1.012,-2.414 1.949,-3.44 0.774,-0.817 1.71,-1.476 2.632,-2.057 z m -3.898,1.953 c -0.054,0.081 -0.181,0.142 -0.147,0.272 0.117,0.077 0.218,0.152 0.303,0.253 0.118,-0.101 0.315,-0.04 0.387,-0.206 -0.171,-0.097 -0.335,-0.282 -0.543,-0.319 z m 8.723,14.755 c -0.312,0.043 -0.569,0.074 -0.907,0.12 -0.135,0.01 -0.319,0.058 -0.462,0.109 -0.064,0.077 -0.027,0.182 -0.091,0.261 l 0.009,0.536 c 0.026,0.052 0.018,0.146 0.035,0.187 0.032,0.15 0.257,0.171 0.39,0.219 0.371,0.068 0.678,0.087 1.052,0.142 l 1.158,-0.032 c 0.363,-0.062 0.826,-0.009 1.133,-0.179 0.027,-0.07 0.038,-0.101 0.038,-0.176 0.012,-0.015 0.016,-0.071 0.028,-0.102 0.009,-0.3 0.058,-0.575 -0.099,-0.845 l -0.129,-0.052 c -0.296,-0.058 -0.628,-0.111 -0.952,-0.145 l -1.203,-0.043 z m 0.388,2.471 c 0.101,0.022 0.183,0.022 0.286,0 -0.021,-0.132 0.049,-0.245 -0.021,-0.353 -0.099,0.07 -0.218,-0.049 -0.285,0.06 0.03,0.08 -0.046,0.206 0.02,0.293 z m -7.92,-1.749 c -0.382,0.028 -0.605,-0.383 -0.778,-0.667 l -0.066,-0.391 c -0.372,-0.075 -0.648,0.141 -0.847,0.427 -0.195,0.302 -0.066,0.684 0.056,1.003 0.116,0.313 0.444,0.422 0.735,0.47 0.341,0.054 0.723,-0.091 0.9,-0.427 0.075,-0.11 0.019,-0.284 0,-0.415 z m 19.553,-9.572 c -0.538,1.306 -1.136,2.55 -1.618,3.878 -0.062,0.169 -0.149,0.404 -0.363,0.423 -0.285,-0.065 -0.219,-0.399 -0.32,-0.605 -0.208,-1.225 -0.367,-2.447 -0.613,-3.663 -0.027,-0.172 -0.083,-0.328 -0.035,-0.492 0.213,-0.076 0.377,0.131 0.567,0.198 0.163,0.079 0.297,0.294 0.483,0.24 0,-0.674 -0.093,-1.161 -0.222,-1.789 -0.196,-0.711 -0.377,-1.417 -0.722,-2.047 -0.044,-0.058 -0.11,-0.174 -0.196,-0.108 -0.565,0.46 -1.182,0.885 -1.687,1.412 l -0.148,0.143 c 0.047,1.209 0.096,2.473 0.074,3.736 -0.016,0.309 -0.128,0.659 -0.007,0.941 0,1.344 0.058,2.7 -0.052,4.089 l 0.055,0.039 c -0.003,0.038 -0.032,0.05 -0.059,0.06 -0.004,0.058 -0.007,0.119 -0.014,0.177 l 0.862,0.82 2.143,1.82 0.078,0.145 c 0.103,0.183 0.114,0.477 0.103,0.655 -0.032,0.159 -0.114,0.345 -0.29,0.457 -0.205,0.132 -0.517,0.097 -0.731,0.014 -1.532,-1.197 -2.918,-2.509 -4.414,-3.738 -0.49,0.123 -0.934,0.287 -1.371,0.426 -0.603,0.253 -1.297,0.069 -1.873,-0.094 -0.018,-0.004 -0.034,-0.004 -0.048,-0.01 -0.05,0.265 -0.03,0.599 -0.017,0.866 0.022,0.102 -0.021,0.217 0.031,0.317 0.439,0.051 0.885,0.145 1.293,0.252 l 0.17,0.09 c 0.216,0.463 0.149,0.941 0.134,1.46 -0.016,0.052 -0.019,0.145 -0.035,0.18 0,0.131 -0.02,0.183 -0.049,0.299 -0.419,0.3 -1.05,0.212 -1.544,0.314 -0.226,0 -0.09,0.252 -0.159,0.371 -0.096,0.157 -0.262,0.201 -0.413,0.274 -0.315,0.106 -0.643,0.011 -0.919,-0.135 -0.074,-0.13 -0.059,-0.318 -0.074,-0.448 -0.504,-0.096 -0.921,-0.131 -1.423,-0.249 -0.182,-0.083 -0.488,-0.127 -0.53,-0.384 -0.019,-0.077 -0.012,-0.226 -0.048,-0.328 l -0.01,-0.92 c 0.088,-0.142 0.039,-0.325 0.119,-0.455 0.201,-0.089 0.446,-0.176 0.63,-0.194 0.457,-0.081 0.805,-0.133 1.229,-0.21 l 0.033,-1.075 c 0,-0.028 -0.011,-0.051 -0.028,-0.066 -0.426,0.134 -0.823,0.279 -1.316,0.279 -0.583,-0.146 -1.172,-0.283 -1.742,-0.425 -0.242,-0.081 -0.485,-0.159 -0.743,-0.218 -0.085,0.02 -0.171,0.042 -0.256,0.068 -0.696,0.553 -1.397,1.211 -2.125,1.779 l -0.041,0.076 c 0.065,0.096 0.121,0.183 0.15,0.292 0.037,0.791 0.025,1.355 -0.523,1.924 -0.577,0.492 -1.334,0.674 -2.117,0.537 -0.799,-0.215 -1.419,-0.958 -1.557,-1.729 -0.142,-0.689 0.058,-1.486 0.674,-1.925 0.623,-0.607 1.598,-0.623 2.438,-0.426 l 0.847,-0.586 c 0.055,-0.052 0.129,-0.11 0.184,-0.173 -0.049,-0.526 -0.057,-1.048 0.019,-1.555 0.011,-0.035 -0.038,-0.103 0,-0.127 -0.055,-0.822 0.06,-1.869 0.021,-2.686 0.089,-0.737 -0.076,-1.523 -0.021,-2.175 0.074,-0.972 -0.041,-1.875 0.017,-2.809 -0.493,-0.442 -1.007,-0.892 -1.543,-1.267 -0.727,0.938 -1.254,1.981 -1.632,3.035 -0.461,1.088 -0.582,2.541 -0.544,3.827 -0.007,0.111 0.04,0.28 -0.105,0.316 -0.055,-0.02 -0.125,0 -0.169,-0.06 -0.377,-0.69 -0.428,-1.617 -0.377,-2.349 -0.004,-1.991 0.409,-3.95 1.155,-5.687 0.074,-0.166 0.215,-0.309 0.255,-0.504 -0.16,-0.092 -0.242,-0.262 -0.275,-0.437 -0.065,-0.41 0.313,-0.627 0.566,-0.875 0.31,-0.342 0.581,0.11 0.849,0.219 0.537,-0.502 1.175,-1.061 1.705,-1.477 1.245,-0.819 2.656,-1.264 4.096,-1.518 0.556,0 1.162,-0.116 1.619,0.142 0.048,0.059 0.077,0.137 0.062,0.217 -1.582,0.394 -3.086,1.001 -4.416,1.984 -0.647,0.52 -1.373,0.954 -1.933,1.641 l -10e-4,0.122 c 0.45,0.416 0.94,0.784 1.387,1.23 0.167,0.132 0.356,0.264 0.503,0.441 0.336,-0.04 0.683,-0.071 1.055,-0.027 0.691,0.018 1.213,0.441 1.859,0.579 0.575,0.213 1.283,0.2 1.925,0.121 l -0.002,-4.522 0.047,-0.16 c 0.107,-0.177 0.34,-0.289 0.539,-0.295 0.325,0 0.715,-0.032 0.882,0.301 0.057,0.538 0.057,2.433 0.047,4.451 0.421,0.12 0.88,0.188 1.367,0.145 1.051,0.011 1.789,-0.645 2.822,-0.773 0.241,-0.006 0.498,-0.042 0.748,-0.055 l 0.645,-0.525 c 0.328,-0.305 0.741,-0.557 1.068,-0.892 l -0.434,-0.514 c -0.777,-1.025 -1.871,-1.607 -2.881,-2.337 -0.064,-0.037 -0.14,-0.11 -0.184,-0.037 0.221,0.483 0.368,1.015 0.493,1.546 0.008,0.055 0.033,0.131 -0.015,0.17 -0.507,-0.132 -0.89,-0.541 -1.352,-0.86 l -2.1,-1.854 -0.212,-0.239 c -0.061,-0.105 0.083,-0.149 0.132,-0.212 1.514,-0.054 2.932,-0.283 4.485,-0.256 l -0.016,0.114 c -0.221,0.316 -0.556,0.415 -0.84,0.657 0.577,0.276 1.122,0.486 1.677,0.811 0.827,0.582 1.84,1.025 2.409,1.98 0.161,-0.031 0.309,-0.215 0.487,-0.07 0.293,0.146 0.609,0.401 0.671,0.729 0.087,0.185 -0.03,0.372 -0.14,0.508 -0.049,0.078 -0.02,0.155 0.062,0.205 0.264,0.413 0.364,0.893 0.502,1.358 0.309,1.136 0.318,2.406 0.371,3.631 0.043,0.035 -0.036,0.081 0.023,0.115 0.273,-0.132 0.477,-0.475 0.796,-0.383 0.039,0.135 0.023,0.259 -0.019,0.383"
       style="fill:#ffffff;fill-opacity:1;fill-rule:nonzero;stroke:none"
       id="path3160"
       inkscape:connector-curvature="0" /><g
       transform="matrix(1,0,0,-1,726.32,486.9385)"
       style="fill:#ffffff"
       id="text3162"><path
         d="m 0.248913,-2.627415 c 0.0829709,0.511654 0.20742817,1.2998797 0.885024,1.96364701 0.9265085,0.92650856 2.2817029,0.95416649 2.7795284,0.95416649 0.4148546,0 2.0327906,-1.1e-6 3.0837555,-1.09245149 0.4978255,-0.52548251 0.857367,-1.29987981 0.857367,-2.14341751 0,-0.7605667 -0.3042275,-1.4381644 -0.774396,-1.8806759 -0.6361104,-0.6361104 -1.6455922,-0.8711957 -2.323188,-1.023309 -1.0509649,-0.2074273 -1.7977052,-0.3595417 -2.0881034,-1.078623 -0.069142,-0.1797703 -0.082971,-0.3595411 -0.082971,-0.470169 0,-1.0094795 0.9818246,-1.5073065 2.0881034,-1.5073065 0.8435377,0 1.5211354,0.2765704 1.9498185,0.691425 0.2489127,0.2489128 0.3595411,0.4839978 0.4839975,0.7882245 L 7.6748174,-7.5780179 C 7.6333319,-7.9099016 7.5641888,-8.587499 6.9695639,-9.1959524 6.1260263,-10.067147 4.7846605,-10.080976 4.3836344,-10.080976 c -3.1667233,0 -3.76135191,1.9636477 -3.76135191,3.0422696 0,2.2402147 2.06044761,2.6550722 3.16672641,2.876328 1.1892498,0.2350842 2.0327895,0.5393125 2.0327895,1.5902774 0,0.8297092 -0.6775979,1.67324851 -2.0604465,1.67324851 -0.8297091,0 -1.645592,-0.24891361 -2.2402169,-0.82971001 C 1.1615943,-2.0881031 0.98182331,-2.4614733 0.80205299,-2.821014 L 0.248913,-2.627415"
         style="font-size:13.82849979000000040px;font-variant:normal;font-weight:500;writing-mode:lr-tb;fill:#ffffff;fill-opacity:1;fill-rule:nonzero;stroke:none;font-family:Cosmos;-inkscape-font-specification:Cosmos-Medium"
         id="path3901" /><path
         d="m 11.325542,0.055314 0.677596,0 1.866848,-4.1208929 1.866847,4.1208929 0.663768,0 2.668901,-7.1355059 -1.47965,0 -1.216908,3.5262675 -0.207427,0.6637679 C 16.013403,-3.2635256 15.999575,-3.3326688 15.86129,-3.6645524 l -1.410507,-3.4156395 -0.608454,0 -1.839191,4.1762069 c -0.0968,-0.3457121 -0.124456,-0.4286838 -0.221256,-0.7467389 l -1.161594,-3.429468 -1.9221612,0 2.6274152,7.1355059"
         style="font-size:13.82849979000000040px;font-variant:normal;font-weight:500;writing-mode:lr-tb;fill:#ffffff;fill-opacity:1;fill-rule:nonzero;stroke:none;font-family:Cosmos;-inkscape-font-specification:Cosmos-Medium"
         id="path3903" /><path
         d="m 26.384778,-4.2730064 c 0,-0.6499389 -0.01383,-1.5902782 -0.705253,-2.295531 -0.401026,-0.4148546 -1.175424,-0.8158815 -2.378502,-0.8158815 -2.10193,0 -2.655072,1.2169087 -2.959299,1.8945045 l 0.470169,0.2350845 c 0.27657,-0.3733691 0.774397,-1.050966 1.949818,-1.050966 0.525483,0 1.313708,0.1797712 1.645592,0.9265095 0.152113,0.3457121 0.17977,0.7190823 0.193599,1.078623 -0.553139,-0.1659419 -0.995653,-0.304227 -1.673249,-0.304227 -1.645589,0 -2.986955,0.9126826 -2.986955,2.5444439 0,1.27222074 0.912682,2.267874 2.350844,2.267874 1.313707,0 2.005133,-0.69142531 2.30936,-1.00948049 l 0,0.80205299 1.783876,0 0,-4.2730064 m -1.783876,2.8348424 c -0.359541,0.2350843 -0.802054,0.51165451 -1.451993,0.51165451 -0.926508,0 -1.272221,-0.64994011 -1.272221,-1.25839351 0,-0.8988516 0.719082,-1.3275359 1.534963,-1.3275359 0.470169,0 0.82971,0.1244566 1.189251,0.2627414 l 0,1.8115335"
         style="font-size:13.82849979000000040px;font-variant:normal;font-weight:500;writing-mode:lr-tb;fill:#ffffff;fill-opacity:1;fill-rule:nonzero;stroke:none;font-family:Cosmos;-inkscape-font-specification:Cosmos-Medium"
         id="path3905" /><path
         d="m 34.75102,-4.7846609 c 0,-0.5946249 -0.04149,-1.2998796 -0.566968,-1.853019 -0.37337,-0.3871976 -0.967996,-0.6499395 -1.700906,-0.6499395 -1.341363,0 -1.949819,0.7190824 -2.309359,1.133937 l 0,-0.9265095 -1.839191,0 0,7.0801919 1.839191,0 0,-5.2686584 c 0.318055,-0.3595407 0.774396,-0.8711955 1.534963,-0.8711955 0.663767,0 1.009481,0.4286839 1.120109,0.82971 0.06914,0.2350842 0.06914,0.4839977 0.06914,0.719082 l 0,4.5910619 1.853019,0 0,-4.7846609"
         style="font-size:13.82849979000000040px;font-variant:normal;font-weight:500;writing-mode:lr-tb;fill:#ffffff;fill-opacity:1;fill-rule:nonzero;stroke:none;font-family:Cosmos;-inkscape-font-specification:Cosmos-Medium"
         id="path3907" /><path
         d="m 36.161529,-1.853019 c 0.04149,0.3318837 0.124457,0.843539 0.594626,1.32753601 0.304226,0.30422669 1.009482,0.81588149 2.39233,0.81588149 2.032788,0 3.014613,-1.14776672 3.014613,-2.378502 0,-0.5946249 -0.221256,-1.1201088 -0.55314,-1.4658209 -0.401026,-0.4148546 -0.940338,-0.5669686 -1.327536,-0.663768 -0.262741,-0.069142 -0.525483,-0.1244566 -0.788224,-0.1797705 -0.622282,-0.1659419 -1.258394,-0.3457132 -1.258394,-0.9818235 0,-0.4563401 0.401028,-0.940338 1.410507,-0.940338 1.396677,0 1.742391,0.7190822 1.866848,0.967995 l 0.483997,-0.138285 c -0.05531,-0.2765697 -0.138285,-0.6914254 -0.55314,-1.1201085 -0.442511,-0.45634 -1.161595,-0.774396 -2.101932,-0.774396 -2.060444,0 -2.973127,1.2445661 -2.973127,2.378502 0,1.2860492 1.064795,1.687077 1.341364,1.7838764 0.318055,0.1244564 0.636112,0.1935991 0.954167,0.2627415 0.898851,0.1935988 1.355193,0.37337 1.56262,0.82971 0.04149,0.1244564 0.06914,0.2350846 0.06914,0.3457125 0,0.041486 -10e-7,0.6914253 -0.774396,0.94033801 -0.235085,0.0829709 -0.470169,0.0967995 -0.691425,0.0967995 -0.774395,0 -1.438165,-0.26274191 -1.825362,-0.64993951 -0.193599,-0.1935988 -0.27657,-0.3871982 -0.359541,-0.5669685 l -0.483998,0.110628"
         style="font-size:13.82849979000000040px;font-variant:normal;font-weight:500;writing-mode:lr-tb;fill:#ffffff;fill-opacity:1;fill-rule:nonzero;stroke:none;font-family:Cosmos;-inkscape-font-specification:Cosmos-Medium"
         id="path3909" /><path
         d="m 50.15597,-2.157246 c -0.483997,0.6222819 -0.995654,1.27222201 -2.281703,1.27222201 -2.184901,0 -2.419987,-1.94981901 -2.48913,-2.47530141 l 5.448429,0 c -0.01383,-0.7743953 -0.02766,-2.0881045 -1.00948,-3.0837555 -0.857366,-0.8573661 -1.963648,-0.9541665 -2.572101,-0.9541665 -2.502956,0 -3.830495,1.6870791 -3.830495,3.761352 0,2.1710723 1.341367,3.9272939 3.885809,3.9272939 2.433813,0 3.000785,-1.4519933 3.305011,-2.2263885 l -0.45634,-0.221256 m -4.729347,-2.2817024 c 0.17977,-0.7052528 0.456342,-1.797705 1.783876,-1.797705 1.382849,0 1.534964,1.1615946 1.617935,1.797705 l -3.401811,0"
         style="font-size:13.82849979000000040px;font-variant:normal;font-weight:500;writing-mode:lr-tb;fill:#ffffff;fill-opacity:1;fill-rule:nonzero;stroke:none;font-family:Cosmos;-inkscape-font-specification:Cosmos-Medium"
         id="path3911" /><path
         d="m 58.577527,-4.2730064 c 0,-0.6499389 -0.01383,-1.5902782 -0.705253,-2.295531 -0.401026,-0.4148546 -1.175424,-0.8158815 -2.378502,-0.8158815 -2.10193,0 -2.655072,1.2169087 -2.959299,1.8945045 l 0.470169,0.2350845 c 0.27657,-0.3733691 0.774397,-1.050966 1.949819,-1.050966 0.525482,0 1.313707,0.1797712 1.645591,0.9265095 0.152113,0.3457121 0.17977,0.7190823 0.193599,1.078623 -0.553139,-0.1659419 -0.995653,-0.304227 -1.673248,-0.304227 -1.64559,0 -2.986956,0.9126826 -2.986956,2.5444439 0,1.27222074 0.912682,2.267874 2.350845,2.267874 1.313706,0 2.005132,-0.69142531 2.309359,-1.00948049 l 0,0.80205299 1.783876,0 0,-4.2730064 m -1.783876,2.8348424 c -0.359541,0.2350843 -0.802054,0.51165451 -1.451992,0.51165451 -0.926509,0 -1.272222,-0.64994011 -1.272222,-1.25839351 0,-0.8988516 0.719082,-1.3275359 1.534963,-1.3275359 0.470169,0 0.82971,0.1244566 1.189251,0.2627414 l 0,1.8115335"
         style="font-size:13.82849979000000040px;font-variant:normal;font-weight:500;writing-mode:lr-tb;fill:#ffffff;fill-opacity:1;fill-rule:nonzero;stroke:none;font-family:Cosmos;-inkscape-font-specification:Cosmos-Medium"
         id="path3913" /><path
         d="m 64.924806,-3.7060379 c 0,1.7838746 0.290399,2.5444445 0.885024,3.15289791 0.566968,0.56696792 1.355194,0.85736699 2.392331,0.85736699 0.345712,0 1.133937,-0.0553144 1.825362,-0.4839975 0.428683,-0.26274123 0.719082,-0.60845435 1.00948,-0.967995 l 0,1.1477655 1.963647,0 0,-9.7629209 -1.963647,0 0,7.6748174 c -0.318055,0.3318837 -1.064795,1.09245151 -2.21256,1.09245151 -0.746738,0 -1.341365,-0.34571321 -1.65942,-1.05096601 -0.110628,-0.2489127 -0.248913,-0.6637688 -0.248913,-1.5349634 l 0,-6.1813395 -1.991304,0 0,6.056883"
         style="font-size:13.82849979000000040px;font-variant:normal;font-weight:500;writing-mode:lr-tb;fill:#ffffff;fill-opacity:1;fill-rule:nonzero;stroke:none;font-family:Cosmos;-inkscape-font-specification:Cosmos-Medium"
         id="path3915" /><path
         d="m 81.463693,-4.7846609 c 0,-0.5946249 -0.04149,-1.2998796 -0.566968,-1.853019 -0.373369,-0.3871976 -0.967996,-0.6499395 -1.700906,-0.6499395 -1.341363,0 -1.949819,0.7190824 -2.309359,1.133937 l 0,-0.9265095 -1.839191,0 0,7.0801919 1.839191,0 0,-5.2686584 c 0.318055,-0.3595407 0.774397,-0.8711955 1.534963,-0.8711955 0.663768,0 1.009481,0.4286839 1.120109,0.82971 0.06914,0.2350842 0.06914,0.4839977 0.06914,0.719082 l 0,4.5910619 1.853019,0 0,-4.7846609"
         style="font-size:13.82849979000000040px;font-variant:normal;font-weight:500;writing-mode:lr-tb;fill:#ffffff;fill-opacity:1;fill-rule:nonzero;stroke:none;font-family:Cosmos;-inkscape-font-specification:Cosmos-Medium"
         id="path3917" /><path
         d="m 83.454999,0 1.839191,0 0,-7.0801919 -1.839191,0 0,7.0801919 m 0.179771,-8.2970999 c 0.193599,0.1935988 0.456341,0.304227 0.73291,0.304227 0.566968,0 1.023309,-0.4701695 1.023309,-1.0371375 0,-0.5531394 -0.470169,-1.0233086 -1.023309,-1.0233086 -0.566967,0 -1.037137,0.4701692 -1.037137,1.0233086 0,0.2765698 0.110628,0.5393117 0.304227,0.7329105"
         style="font-size:13.82849979000000040px;font-variant:normal;font-weight:500;writing-mode:lr-tb;fill:#ffffff;fill-opacity:1;fill-rule:nonzero;stroke:none;font-family:Cosmos;-inkscape-font-specification:Cosmos-Medium"
         id="path3919" /><path
         d="m 86.386638,-7.0801919 3.263525,7.1355059 0.566969,0 3.208212,-7.1355059 -1.493478,0 -1.507307,3.650724 c -0.110627,0.3042266 -0.124456,0.3042273 -0.207427,0.6084539 l -1.83919,-4.2591779 -1.991304,0"
         style="font-size:13.82849979000000040px;font-variant:normal;font-weight:500;writing-mode:lr-tb;fill:#ffffff;fill-opacity:1;fill-rule:nonzero;stroke:none;font-family:Cosmos;-inkscape-font-specification:Cosmos-Medium"
         id="path3921" /><path
         d="m 100.96188,-2.157246 c -0.484,0.6222819 -0.995655,1.27222201 -2.281705,1.27222201 -2.1849,0 -2.419987,-1.94981901 -2.48913,-2.47530141 l 5.448425,0 c -0.0138,-0.7743953 -0.0277,-2.0881045 -1.00948,-3.0837555 -0.857362,-0.8573661 -1.963644,-0.9541665 -2.572097,-0.9541665 -2.502956,0 -3.830494,1.6870791 -3.830494,3.761352 0,2.1710723 1.341367,3.9272939 3.885808,3.9272939 2.433813,0 3.000783,-1.4519933 3.305013,-2.2263885 l -0.45634,-0.221256 m -4.729349,-2.2817024 c 0.17977,-0.7052528 0.456342,-1.797705 1.783876,-1.797705 1.382849,0 1.534964,1.1615946 1.617935,1.797705 l -3.401811,0"
         style="font-size:13.82849979000000040px;font-variant:normal;font-weight:500;writing-mode:lr-tb;fill:#ffffff;fill-opacity:1;fill-rule:nonzero;stroke:none;font-family:Cosmos;-inkscape-font-specification:Cosmos-Medium"
         id="path3923" /><path
         d="m 105.08277,-7.0801919 -1.85302,0 0,7.0801919 1.85302,0 0,-5.4899144 c 0.31806,-0.2074273 0.73291,-0.4839975 1.41051,-0.4839975 0.51165,0 0.8712,0.1659422 1.21691,0.331884 l 0,-1.604106 c -0.16594,-0.027657 -0.34572,-0.041485 -0.52549,-0.041485 -1.25839,0 -1.82536,0.7329109 -2.10193,1.0924515 l 0,-0.885024"
         style="font-size:13.82849979000000040px;font-variant:normal;font-weight:500;writing-mode:lr-tb;fill:#ffffff;fill-opacity:1;fill-rule:nonzero;stroke:none;font-family:Cosmos;-inkscape-font-specification:Cosmos-Medium"
         id="path3925" /><path
         d="m 108.38641,-1.853019 c 0.0415,0.3318837 0.12446,0.843539 0.59462,1.32753601 0.30423,0.30422669 1.00949,0.81588149 2.39234,0.81588149 2.03278,0 3.01461,-1.14776672 3.01461,-2.378502 0,-0.5946249 -0.22126,-1.1201088 -0.55314,-1.4658209 -0.40103,-0.4148546 -0.94034,-0.5669686 -1.32754,-0.663768 -0.26274,-0.069142 -0.52548,-0.1244566 -0.78822,-0.1797705 -0.62228,-0.1659419 -1.2584,-0.3457132 -1.2584,-0.9818235 0,-0.4563401 0.40103,-0.940338 1.41051,-0.940338 1.39668,0 1.74239,0.7190822 1.86685,0.967995 l 0.484,-0.138285 c -0.0553,-0.2765697 -0.13829,-0.6914254 -0.55314,-1.1201085 -0.44252,-0.45634 -1.1616,-0.774396 -2.10194,-0.774396 -2.06044,0 -2.97312,1.2445661 -2.97312,2.378502 0,1.2860492 1.06479,1.687077 1.34136,1.7838764 0.31806,0.1244564 0.63611,0.1935991 0.95417,0.2627415 0.89885,0.1935988 1.35519,0.37337 1.56262,0.82971 0.0415,0.1244564 0.0691,0.2350846 0.0691,0.3457125 0,0.041486 0,0.6914253 -0.7744,0.94033801 -0.23508,0.0829709 -0.47016,0.0967995 -0.69142,0.0967995 -0.7744,0 -1.43816,-0.26274191 -1.82536,-0.64993951 -0.1936,-0.1935988 -0.27657,-0.3871982 -0.35954,-0.5669685 l -0.484,0.110628"
         style="font-size:13.82849979000000040px;font-variant:normal;font-weight:500;writing-mode:lr-tb;fill:#ffffff;fill-opacity:1;fill-rule:nonzero;stroke:none;font-family:Cosmos;-inkscape-font-specification:Cosmos-Medium"
         id="path3927" /><path
         d="m 115.93675,0 1.83919,0 0,-7.0801919 -1.83919,0 0,7.0801919 m 0.17977,-8.2970999 c 0.1936,0.1935988 0.45634,0.304227 0.73291,0.304227 0.56697,0 1.02331,-0.4701695 1.02331,-1.0371375 0,-0.5531394 -0.47017,-1.0233086 -1.02331,-1.0233086 -0.56697,0 -1.03714,0.4701692 -1.03714,1.0233086 0,0.2765698 0.11063,0.5393117 0.30423,0.7329105"
         style="font-size:13.82849979000000040px;font-variant:normal;font-weight:500;writing-mode:lr-tb;fill:#ffffff;fill-opacity:1;fill-rule:nonzero;stroke:none;font-family:Cosmos;-inkscape-font-specification:Cosmos-Medium"
         id="path3929" /><path
         d="m 120.08532,-7.0801919 -1.12011,0 0,1.10628 1.12011,0 0,3.9134654 c 0,0.6222819 0.0691,1.24456551 0.5808,1.742391 0.53931,0.53931096 1.27222,0.580797 1.6041,0.580797 0.91268,0 1.41051,-0.31805575 1.82536,-0.5669685 l -0.22125,-0.44251199 c -0.22126,0.0691424 -0.41486,0.138285 -0.70526,0.138285 -0.13828,0 -0.69142,-6.2e-7 -1.0233,-0.62228251 -0.13829,-0.2350842 -0.22126,-0.5254836 -0.22126,-1.1201085 l 0,-3.6230669 1.61793,0 0,-1.10628 -1.61793,0 0,-1.9221615 -1.83919,0 0,1.9221615"
         style="font-size:13.82849979000000040px;font-variant:normal;font-weight:500;writing-mode:lr-tb;fill:#ffffff;fill-opacity:1;fill-rule:nonzero;stroke:none;font-family:Cosmos;-inkscape-font-specification:Cosmos-Medium"
         id="path3931" /><path
         d="m 124.17855,-7.0801919 2.75187,6.16751091 C 125.8518,1.4796471 125.43694,2.0466181 124.04027,2.21256 l 0,0.525483 c 0.16594,0 0.31805,0.013829 0.47016,0.013829 2.19873,0 2.80719,-1.3413662 3.56776,-3.0560985 l 3.02844,-6.7759649 -1.50731,0 -1.77005,4.1762069 c -0.17977,-0.5669679 -0.22125,-0.705254 -0.47016,-1.2998789 l -1.18926,-2.876328 -1.9913,0"
         style="font-size:13.82849979000000040px;font-variant:normal;font-weight:500;writing-mode:lr-tb;fill:#ffffff;fill-opacity:1;fill-rule:nonzero;stroke:none;font-family:Cosmos;-inkscape-font-specification:Cosmos-Medium"
         id="path3933" /><path
         d="m 2.3660564,15.013602 1.9774754,0 0,-4.342149 c 0.3180552,0.04149 0.6775969,0.0968 1.0647945,0.0968 2.1157584,0 3.844323,-1.0924535 3.844323,-2.9592991 0,-1.0094795 -0.5946281,-2.572101 -3.180555,-2.572101 l -3.7060379,0 0,9.7767491 M 4.3435318,6.5782174 c 0.7882237,-0.013828 1.313708,-0.013828 1.770048,0.138285 0.6914243,0.2350842 1.0647945,0.7882252 1.0647945,1.5073065 0,0.6637673 -0.3595417,1.2030798 -1.0924515,1.5211349 -0.6222819,0.2765702 -1.1892515,0.2903982 -1.742391,0.2903982 l 0,-3.4571246"
         style="font-size:13.82849979000000040px;font-variant:normal;font-weight:500;writing-mode:lr-tb;fill:#ffffff;fill-opacity:1;fill-rule:nonzero;stroke:none;font-family:Cosmos;-inkscape-font-specification:Cosmos-Medium"
         id="path3935" /><path
         d="m 12.267262,7.9334104 -1.853019,0 0,7.0801916 1.853019,0 0,-5.4899142 c 0.318056,-0.2074273 0.732912,-0.4839975 1.410507,-0.4839975 0.511654,0 0.871196,0.1659422 1.216908,0.331884 l 0,-1.6041059 c -0.165941,-0.027657 -0.345712,-0.041486 -0.525483,-0.041486 -1.258392,0 -1.825362,0.7329108 -2.101932,1.0924514 l 0,-0.8850239"
         style="font-size:13.82849979000000040px;font-variant:normal;font-weight:500;writing-mode:lr-tb;fill:#ffffff;fill-opacity:1;fill-rule:nonzero;stroke:none;font-family:Cosmos;-inkscape-font-specification:Cosmos-Medium"
         id="path3937" /><path
         d="m 15.931815,15.013602 1.83919,0 0,-7.0801916 -1.83919,0 0,7.0801916 m 0.17977,-8.2970996 c 0.193599,0.1935988 0.456341,0.304227 0.732911,0.304227 0.566968,0 1.023309,-0.4701696 1.023309,-1.0371375 0,-0.5531394 -0.47017,-1.023309 -1.023309,-1.023309 -0.566968,0 -1.037138,0.4701696 -1.037138,1.023309 0,0.2765697 0.110628,0.5393117 0.304227,0.7329105"
         style="font-size:13.82849979000000040px;font-variant:normal;font-weight:500;writing-mode:lr-tb;fill:#ffffff;fill-opacity:1;fill-rule:nonzero;stroke:none;font-family:Cosmos;-inkscape-font-specification:Cosmos-Medium"
         id="path3939" /><path
         d="m 19.043228,7.9334104 0,1.1062799 1.078623,0 0,5.9739117 1.83919,0 0,-5.9739117 1.617935,0 0,-1.1062799 -1.617935,0 c 0,-0.8435377 10e-7,-1.1615944 0.165942,-1.521135 0.207428,-0.4701685 0.622283,-0.608454 0.940338,-0.608454 0.345713,0 0.566969,0.1106281 0.719082,0.1797705 l 0.290399,-0.414855 c -0.318055,-0.2903982 -0.677598,-0.6222825 -1.65942,-0.6222825 -0.954166,0 -1.825362,0.4010274 -2.143417,1.299879 -0.152114,0.4286831 -0.165942,0.9541672 -0.152114,1.687077 l -1.078623,0"
         style="font-size:13.82849979000000040px;font-variant:normal;font-weight:500;writing-mode:lr-tb;fill:#ffffff;fill-opacity:1;fill-rule:nonzero;stroke:none;font-family:Cosmos;-inkscape-font-specification:Cosmos-Medium"
         id="path3941" /><path
         d="m 23.883202,7.9334104 2.751871,6.1675106 c -1.078622,2.392328 -1.493479,2.959299 -2.890156,3.125241 l 0,0.525483 c 0.165941,0 0.318055,0.01383 0.470169,0.01383 2.198729,0 2.807186,-1.341366 3.567753,-3.056099 l 3.028441,-6.7759646 -1.507306,0 -1.770048,4.1762066 c -0.179771,-0.566968 -0.221257,-0.705254 -0.470169,-1.299879 l -1.189251,-2.8763276 -1.991304,0"
         style="font-size:13.82849979000000040px;font-variant:normal;font-weight:500;writing-mode:lr-tb;fill:#ffffff;fill-opacity:1;fill-rule:nonzero;stroke:none;font-family:Cosmos;-inkscape-font-specification:Cosmos-Medium"
         id="path3943" /><path
         d="m 31.364422,13.160583 c 0.04148,0.331884 0.124457,0.843539 0.594625,1.327536 0.304227,0.304227 1.009482,0.815882 2.392331,0.815882 2.032787,0 3.014612,-1.147767 3.014612,-2.378502 0,-0.594625 -0.221256,-1.120109 -0.553139,-1.465821 -0.401027,-0.414855 -0.940339,-0.566969 -1.327536,-0.663768 -0.262742,-0.06914 -0.525484,-0.124457 -0.788225,-0.179771 -0.622282,-0.165942 -1.258393,-0.345713 -1.258393,-0.9818232 0,-0.45634 0.401027,-0.9403379 1.410507,-0.9403379 1.396677,0 1.742391,0.7190822 1.866847,0.9679949 l 0.483997,-0.138285 C 37.144735,9.2471181 37.061763,8.8322624 36.646909,8.4035794 36.204397,7.9472393 35.485314,7.6291834 34.544977,7.6291834 c -2.060445,0 -2.973128,1.2445661 -2.973128,2.3785016 0,1.28605 1.064795,1.687077 1.341365,1.783877 0.318055,0.124456 0.636111,0.193599 0.954166,0.262741 0.898852,0.193599 1.355193,0.37337 1.562621,0.82971 0.04149,0.124457 0.06914,0.235085 0.06914,0.345713 0,0.04148 -10e-7,0.691425 -0.774396,0.940338 -0.235084,0.08297 -0.470169,0.0968 -0.691425,0.0968 -0.774395,0 -1.438164,-0.262742 -1.825362,-0.649939 -0.193599,-0.193599 -0.27657,-0.387198 -0.359541,-0.566969 l -0.483997,0.110628"
         style="font-size:13.82849979000000040px;font-variant:normal;font-weight:500;writing-mode:lr-tb;fill:#ffffff;fill-opacity:1;fill-rule:nonzero;stroke:none;font-family:Cosmos;-inkscape-font-specification:Cosmos-Medium"
         id="path3945" /><path
         d="m 38.859467,15.649713 c 0.08297,0.331884 0.207428,0.843539 0.663768,1.299879 0.511654,0.511654 1.424337,0.871196 2.516787,0.871196 1.147764,0 2.184904,-0.387199 2.7657,-0.967995 0.829709,-0.829709 0.843539,-1.94982 0.857367,-2.8625 l 0,-6.0707111 -1.853019,0 0,0.774396 C 43.519672,8.3344372 42.96653,7.6291834 41.680481,7.6291834 c -1.742389,0 -3.056098,1.4243376 -3.056098,3.6230666 0,2.309357 1.507307,3.484782 2.903985,3.484782 0.760566,0 1.493478,-0.331884 1.93599,-0.746739 0.124456,-0.110628 0.235084,-0.235084 0.345712,-0.373369 0.01383,0.857366 0.01383,1.797705 -0.663768,2.475301 -0.207427,0.207428 -0.719083,0.636111 -1.65942,0.636111 -0.774395,0 -1.369022,-0.318056 -1.728562,-0.677596 -0.138285,-0.152114 -0.262742,-0.331885 -0.456341,-0.608454 l -0.442512,0.207427 m 4.950603,-2.834842 c -0.248913,0.27657 -0.74674,0.802053 -1.548792,0.802053 -0.857366,0 -1.673248,-0.774398 -1.673248,-2.364674 0,-1.6041041 0.705254,-2.5167866 1.728562,-2.5167866 0.843538,0 1.216908,0.5393118 1.493478,0.9403379 l 0,3.1390697"
         style="font-size:13.82849979000000040px;font-variant:normal;font-weight:500;writing-mode:lr-tb;fill:#ffffff;fill-opacity:1;fill-rule:nonzero;stroke:none;font-family:Cosmos;-inkscape-font-specification:Cosmos-Medium"
         id="path3947" /><path
         d="m 50.959406,7.6430119 c -1.604105,0.027657 -3.623067,1.0509688 -3.623067,3.8581511 0,2.295529 1.410509,3.802838 3.567753,3.802838 2.599755,0 3.747523,-1.894507 3.747523,-3.87198 0,-2.5720986 -1.811535,-3.8166661 -3.692209,-3.7890091 m 0.02766,1.1339369 c 1.203078,0 1.714734,1.1892526 1.714734,2.7657002 0,1.451991 -0.553141,2.641243 -1.714734,2.641243 -1.147765,0 -1.700906,-1.133938 -1.700906,-2.738043 0,-1.5349616 0.56697,-2.6689002 1.700906,-2.6689002"
         style="font-size:13.82849979000000040px;font-variant:normal;font-weight:500;writing-mode:lr-tb;fill:#ffffff;fill-opacity:1;fill-rule:nonzero;stroke:none;font-family:Cosmos;-inkscape-font-specification:Cosmos-Medium"
         id="path3949" /><path
         d="m 56.311037,15.013602 1.853019,0 0,-9.7629206 -1.853019,0 0,9.7629206"
         style="font-size:13.82849979000000040px;font-variant:normal;font-weight:500;writing-mode:lr-tb;fill:#ffffff;fill-opacity:1;fill-rule:nonzero;stroke:none;font-family:Cosmos;-inkscape-font-specification:Cosmos-Medium"
         id="path3951" /><path
         d="m 63.695454,15.013602 1.714734,0 0.967995,-2.157246 4.037922,0 0.967995,2.157246 2.101931,0 -4.480433,-9.7629206 -0.677597,0 -4.632547,9.7629206 m 6.126025,-3.443296 -2.862499,0 1.410507,-3.1667266 1.451992,3.1667266"
         style="font-size:13.82849979000000040px;font-variant:normal;font-weight:500;writing-mode:lr-tb;fill:#ffffff;fill-opacity:1;fill-rule:nonzero;stroke:none;font-family:Cosmos;-inkscape-font-specification:Cosmos-Medium"
         id="path3953" /><path
         d="m 74.633794,15.013602 1.853019,0 0,-0.73291 c 0.235085,0.290398 0.857368,1.050966 2.060447,1.050966 1.382848,0 3.139069,-1.078626 3.139069,-3.927294 0,-2.1987295 -1.12011,-3.7613521 -3.014613,-3.7613521 -1.341363,0 -1.908333,0.7329108 -2.184903,1.0924515 l 0,-3.484782 -1.853019,0 0,9.7629206 m 1.853019,-5.3101437 c 0,-0.013828 0.442513,-0.9265095 1.507307,-0.9265095 0.705253,0 1.161594,0.4010271 1.438164,0.967995 0.276569,0.5531392 0.318055,1.1892512 0.318055,1.6455912 0,2.323186 -1.078623,2.807186 -1.797705,2.807186 -0.788223,0 -1.203079,-0.497827 -1.465821,-0.815882 l 0,-3.6783807"
         style="font-size:13.82849979000000040px;font-variant:normal;font-weight:500;writing-mode:lr-tb;fill:#ffffff;fill-opacity:1;fill-rule:nonzero;stroke:none;font-family:Cosmos;-inkscape-font-specification:Cosmos-Medium"
         id="path3955" /><path
         d="m 89.776003,12.856356 c -0.483997,0.622282 -0.995653,1.272222 -2.281702,1.272222 -2.184901,0 -2.419988,-1.949819 -2.48913,-2.475301 l 5.448428,0 c -0.01383,-0.774395 -0.02766,-2.0881047 -1.00948,-3.0837556 -0.857366,-0.8573662 -1.963648,-0.9541665 -2.572101,-0.9541665 -2.502956,0 -3.830494,1.687079 -3.830494,3.7613521 0,2.171072 1.341367,3.927294 3.885808,3.927294 2.433814,0 3.000785,-1.451994 3.305011,-2.226389 l -0.45634,-0.221256 m -4.729347,-2.281702 c 0.17977,-0.705253 0.456342,-1.7977052 1.783877,-1.7977052 1.382848,0 1.534963,1.1615947 1.617934,1.7977052 l -3.401811,0"
         style="font-size:13.82849979000000040px;font-variant:normal;font-weight:500;writing-mode:lr-tb;fill:#ffffff;fill-opacity:1;fill-rule:nonzero;stroke:none;font-family:Cosmos;-inkscape-font-specification:Cosmos-Medium"
         id="path3957" /><path
         d="m 93.896897,7.9334104 -1.853019,0 0,7.0801916 1.853019,0 0,-5.4899142 c 0.318055,-0.2074273 0.732911,-0.4839975 1.410507,-0.4839975 0.511654,0 0.871196,0.1659422 1.216908,0.331884 l 0,-1.6041059 C 96.35837,7.7398114 96.1786,7.7259829 95.998829,7.7259829 c -1.258392,0 -1.825362,0.7329108 -2.101932,1.0924514 l 0,-0.8850239"
         style="font-size:13.82849979000000040px;font-variant:normal;font-weight:500;writing-mode:lr-tb;fill:#ffffff;fill-opacity:1;fill-rule:nonzero;stroke:none;font-family:Cosmos;-inkscape-font-specification:Cosmos-Medium"
         id="path3959" /><path
         d="m 98.333083,7.9334104 -1.120108,0 0,1.1062799 1.120108,0 0,3.9134657 c 0,0.622282 0.06914,1.244565 0.580797,1.742391 0.539311,0.539311 1.27222,0.580797 1.60411,0.580797 0.91268,0 1.4105,-0.318056 1.82536,-0.566969 l -0.22126,-0.442512 c -0.22125,0.06914 -0.41485,0.138285 -0.70525,0.138285 -0.13829,0 -0.69143,0 -1.02331,-0.622282 -0.13828,-0.235084 -0.22126,-0.525484 -0.22126,-1.120109 l 0,-3.6230667 1.61794,0 0,-1.1062799 -1.61794,0 0,-1.9221615 -1.839187,0 0,1.9221615"
         style="font-size:13.82849979000000040px;font-variant:normal;font-weight:500;writing-mode:lr-tb;fill:#ffffff;fill-opacity:1;fill-rule:nonzero;stroke:none;font-family:Cosmos;-inkscape-font-specification:Cosmos-Medium"
         id="path3961" /><path
         d="m 109.39589,10.740596 c 0,-0.649939 -0.0138,-1.5902784 -0.70526,-2.2955311 -0.40102,-0.4148546 -1.17542,-0.8158815 -2.3785,-0.8158815 -2.10193,0 -2.65507,1.2169086 -2.9593,1.8945044 l 0.47017,0.2350845 c 0.27657,-0.3733691 0.7744,-1.0509659 1.94982,-1.0509659 0.52548,0 1.31371,0.1797712 1.64559,0.9265094 0.15211,0.3457122 0.17977,0.7190822 0.1936,1.0786232 -0.55314,-0.165942 -0.99565,-0.304227 -1.67325,-0.304227 -1.64559,0 -2.98695,0.912682 -2.98695,2.544444 0,1.27222 0.91268,2.267874 2.35084,2.267874 1.31371,0 2.00513,-0.691426 2.30936,-1.009481 l 0,0.802053 1.78388,0 0,-4.273006 m -1.78388,2.834842 c -0.35954,0.235085 -0.80205,0.511655 -1.45199,0.511655 -0.92651,0 -1.27222,-0.64994 -1.27222,-1.258394 0,-0.898851 0.71908,-1.327536 1.53496,-1.327536 0.47017,0 0.82971,0.124457 1.18925,0.262742 l 0,1.811533"
         style="font-size:13.82849979000000040px;font-variant:normal;font-weight:500;writing-mode:lr-tb;fill:#ffffff;fill-opacity:1;fill-rule:nonzero;stroke:none;font-family:Cosmos;-inkscape-font-specification:Cosmos-Medium"
         id="path3963" /><path
         d="m 113.17106,15.068916 0.6776,0 1.86685,-4.120893 1.86684,4.120893 0.66377,0 2.6689,-7.1355056 -1.47965,0 -1.2169,3.5262676 -0.20743,0.663768 c -0.15212,-0.373369 -0.16594,-0.442513 -0.30423,-0.774396 l -1.41051,-3.4156396 -0.60845,0 -1.83919,4.1762066 c -0.0968,-0.345712 -0.12446,-0.428684 -0.22126,-0.746739 l -1.16159,-3.4294676 -1.92216,0 2.62741,7.1355056"
         style="font-size:13.82849979000000040px;font-variant:normal;font-weight:500;writing-mode:lr-tb;fill:#ffffff;fill-opacity:1;fill-rule:nonzero;stroke:none;font-family:Cosmos;-inkscape-font-specification:Cosmos-Medium"
         id="path3965" /><path
         d="m 128.50686,12.856356 c -0.484,0.622282 -0.99565,1.272222 -2.2817,1.272222 -2.1849,0 -2.41999,-1.949819 -2.48913,-2.475301 l 5.44843,0 c -0.0138,-0.774395 -0.0277,-2.0881047 -1.00948,-3.0837556 -0.85737,-0.8573662 -1.96365,-0.9541665 -2.5721,-0.9541665 -2.50296,0 -3.8305,1.687079 -3.8305,3.7613521 0,2.171072 1.34137,3.927294 3.88581,3.927294 2.43381,0 3.00078,-1.451994 3.30501,-2.226389 l -0.45634,-0.221256 m -4.72935,-2.281702 c 0.17977,-0.705253 0.45635,-1.7977052 1.78388,-1.7977052 1.38285,0 1.53496,1.1615947 1.61793,1.7977052 l -3.40181,0"
         style="font-size:13.82849979000000040px;font-variant:normal;font-weight:500;writing-mode:lr-tb;fill:#ffffff;fill-opacity:1;fill-rule:nonzero;stroke:none;font-family:Cosmos;-inkscape-font-specification:Cosmos-Medium"
         id="path3967" /></g></g></svg>